<svg width="129" height="129" viewBox="0 0 129 129" fill="none" xmlns="http://www.w3.org/2000/svg">
<g clip-path="url(#clip0_2_422)">
<path fill-rule="evenodd" clip-rule="evenodd" d="M83.4598 35.8404C82.3519 36.1626 81.2181 36.3307 80.0585 36.3443C80.0048 38.9954 79.8578 41.6409 79.6175 44.2808C79.4543 44.5724 79.2023 44.6984 78.8617 44.6587C69.0835 41.5968 59.2784 41.5758 49.4462 44.5957C48.6269 44.7435 48.228 44.3866 48.2494 43.5249C48.0449 41.1354 47.94 38.7418 47.9344 36.3443C42.7421 36.1945 39.0678 33.7588 36.9115 29.0376C36.1643 26.8114 36.0173 24.5438 36.4706 22.2349C38.1211 17.3946 41.4805 14.5181 46.5487 13.6055C47.5985 13.5215 48.6483 13.5215 49.6981 13.6055C50.2631 13.6238 50.809 13.7287 51.3358 13.9204C53.3185 10.7014 56.1321 8.53882 59.7762 7.43264C64.5774 6.32398 68.9866 7.16383 73.0038 9.95217C74.3182 11.0985 75.452 12.4003 76.4051 13.8574C81.2983 12.8573 85.4766 14.1381 88.9398 17.6997C91.7306 21.0904 92.4025 24.8697 90.9554 29.0376C89.4684 32.436 86.9699 34.7035 83.4598 35.8404Z" fill="#0D781C"/>
<path fill-rule="evenodd" clip-rule="evenodd" d="M36.4707 22.2348C36.0174 24.5437 36.1645 26.8113 36.9116 29.0376C39.068 33.7588 42.7422 36.1944 47.9346 36.3442C47.9401 38.7418 48.0451 41.1353 48.2495 43.5249C48.2281 44.3865 48.6271 44.7434 49.4463 44.5957C59.2785 41.5758 69.0836 41.5968 78.8618 44.6587C79.2025 44.6983 79.4544 44.5724 79.6177 44.2807C79.8579 41.6409 80.0049 38.9954 80.0586 36.3442C81.2182 36.3306 82.352 36.1625 83.46 35.8403C83.5898 35.9347 83.7369 36.0186 83.9009 36.0922C84.2366 35.8191 84.6145 35.6091 85.0347 35.4624C85.0955 35.5818 85.1164 35.7078 85.0977 35.8403C84.8876 35.8403 84.6778 35.8403 84.4678 35.8403C84.4678 36.0082 84.4678 36.1763 84.4678 36.3442C84.3012 36.3656 84.1542 36.3237 84.0269 36.2182C83.8342 36.5667 83.5612 36.8186 83.208 36.9741C83.6178 37.1772 83.8908 37.0512 84.0269 36.5962C84.1164 36.8314 84.0534 37.0203 83.8379 37.163C84.1247 37.0711 84.3977 37.0081 84.6567 36.9741C84.7353 37.258 84.9033 37.468 85.1606 37.604C85.42 37.4567 85.735 37.3937 86.1055 37.415C86.2098 37.5303 86.3358 37.6142 86.4834 37.667C85.8766 37.8242 85.7506 38.1391 86.1055 38.6118C86.3363 38.5175 86.5463 38.3916 86.7354 38.2339C86.709 38.16 86.6669 38.097 86.6094 38.0449C86.9413 37.7978 87.1724 37.4829 87.3022 37.1001C87.6144 37.6235 87.7195 37.6025 87.6172 37.0371C87.7166 36.8322 87.8426 36.6433 87.9951 36.4702C87.929 36.383 87.845 36.32 87.7432 36.2812C88.0722 36.1498 88.3661 35.9609 88.625 35.7143C88.6988 35.7406 88.7618 35.7827 88.814 35.8403C88.9372 35.3422 89.2942 35.0272 89.8848 34.8955C89.4055 34.7073 89.4475 34.6022 90.0107 34.5805C90.0322 34.414 89.9902 34.267 89.8848 34.1396C90.3678 33.8541 90.3258 33.7701 89.7588 33.8877C89.6942 33.6891 89.7782 33.5212 90.0107 33.3838C89.9597 33.2647 89.8757 33.1807 89.7588 33.1318C89.9908 32.8114 90.2638 32.5385 90.5776 32.313C90.7677 32.3873 90.9567 32.4712 91.1445 32.5649C91.0146 32.7161 90.9096 32.8841 90.8296 33.0688C90.6011 32.9101 90.3702 32.9101 90.1367 33.0688C90.3355 33.1693 90.5454 33.2323 90.7666 33.2578C90.5756 33.5553 90.4076 33.8703 90.2627 34.2026C90.4052 34.3417 90.5102 34.2997 90.5776 34.0766C90.6617 34.2026 90.6617 34.3286 90.5776 34.4546C90.1891 34.4873 89.9582 34.7393 89.8848 35.2104C90.3574 35.4037 90.8613 35.3198 91.3965 34.9585C91.4964 35.0662 91.4544 35.1712 91.2705 35.2734C91.4814 35.4631 91.6074 35.694 91.6484 35.9663C91.365 35.9261 91.113 35.9891 90.8926 36.1552C91.3295 36.0637 91.7493 36.1057 92.1523 36.2812C92.0264 36.1763 91.9004 36.0712 91.7744 35.9663C91.8557 35.8111 91.8766 35.6431 91.8374 35.4624C92.0558 35.368 92.2868 35.305 92.5303 35.2734C92.3214 35.1821 92.2584 35.0351 92.3413 34.8325C92.3935 34.8901 92.4565 34.9321 92.5303 34.9585C92.7408 34.6463 93.0347 34.4573 93.4121 34.3916C93.2442 34.2656 93.0761 34.1396 92.9082 34.0136C93.2078 33.8909 93.1657 33.8069 92.7822 33.7617C92.9766 33.5251 93.2075 33.3361 93.4751 33.1948C93.517 33.2788 93.5591 33.3627 93.6011 33.4467C93.7413 33.2942 93.8883 33.2942 94.042 33.4467C94.252 33.1108 94.4619 32.7749 94.6719 32.4389C94.6035 32.2671 94.5824 32.0992 94.6089 31.935C94.7226 32.0863 94.8695 32.1914 95.0498 32.25C94.8409 32.3413 94.7779 32.4883 94.8608 32.6909C94.976 32.5455 95.0809 32.5665 95.1758 32.7539C95.0005 32.9617 94.8116 33.0247 94.6089 32.9428C94.5472 33.1057 94.5261 33.2738 94.5459 33.4467C95.2472 33.3933 95.3942 33.6033 94.9868 34.0766C94.9449 33.9926 94.9028 33.9087 94.8608 33.8247C94.7647 34.1988 94.5758 34.5138 94.2939 34.7695C94.3569 34.8325 94.4199 34.8955 94.4829 34.9585C94.8877 34.3174 95.3076 34.3174 95.7427 34.9585C95.9587 34.6801 96.2316 34.4702 96.5615 34.3286C96.6883 34.3838 96.6883 34.4677 96.5615 34.5805C96.4355 34.6646 96.3096 34.7485 96.1836 34.8325C96.2958 34.9698 96.4218 34.9698 96.5615 34.8325C96.6487 34.8986 96.7117 34.9826 96.7505 35.0844C96.8828 34.7393 97.1137 34.5503 97.4434 34.5175C97.2685 34.6295 97.2894 34.6925 97.5063 34.7065C97.7613 34.5155 98.0343 34.3476 98.3252 34.2026C98.4643 34.3451 98.4223 34.4501 98.1992 34.5175C98.3721 34.5682 98.54 34.6312 98.7031 34.7065C99.0458 34.5829 99.3397 34.394 99.585 34.1396C99.4343 34.0572 99.4343 33.9942 99.585 33.9506C99.6269 34.0136 99.669 34.0766 99.7109 34.1396C99.5079 34.3263 99.3819 34.5572 99.333 34.8325C99.1284 34.8148 98.9815 34.8989 98.8921 35.0844C98.7769 34.9391 98.672 34.9601 98.5771 35.1474C98.8784 35.2345 98.8784 35.3605 98.5771 35.5254C98.3755 35.5597 98.1865 35.6227 98.0103 35.7143C97.9683 35.6303 97.9262 35.5464 97.8843 35.4624C97.7912 35.6792 97.6861 35.889 97.5693 36.0922C97.4088 35.7962 97.2409 35.8172 97.0654 36.1552C97.1115 36.386 97.2795 36.575 97.5693 36.7221C97.4754 36.8778 97.4334 37.0459 97.4434 37.226C97.7233 37.2666 97.9543 37.1826 98.1362 36.9741C98.1754 36.8176 98.1124 36.6916 97.9473 36.5962C98.1895 36.4944 98.4415 36.4314 98.7031 36.4072C98.064 36.2666 98.0851 36.1196 98.7661 35.9663C98.8081 36.0082 98.8501 36.0503 98.8921 36.0922C99.0919 35.9819 99.2809 35.8559 99.459 35.7143C99.6226 35.7886 99.7276 35.9146 99.7739 36.0922C99.9905 35.5131 100.242 35.3872 100.53 35.7143C100.818 35.5178 101.133 35.3708 101.475 35.2734C101.664 35.0856 101.769 34.8547 101.79 34.5805C102.2 34.872 102.557 34.872 102.86 34.5805C102.954 34.8562 102.996 35.1081 102.986 35.3364C103.139 34.9581 103.265 34.6221 103.364 34.3286C103.459 34.4389 103.522 34.5649 103.553 34.7065C103.606 34.5589 103.69 34.4329 103.805 34.3286C103.787 34.5613 103.766 34.7922 103.742 35.0214C103.848 35.169 103.953 35.316 104.057 35.4624C104.66 35.091 104.744 35.175 104.309 35.7143C104.133 35.6449 103.965 35.603 103.805 35.5883C103.575 35.6643 103.344 35.7483 103.112 35.8403C103.431 36.0061 103.431 36.1531 103.112 36.2812C103.462 36.5053 103.42 36.6313 102.986 36.6591C103.277 36.7544 103.529 36.6914 103.742 36.4702C103.699 36.3195 103.636 36.3195 103.553 36.4702C103.491 36.3073 103.47 36.1392 103.49 35.9663C103.808 35.7909 104.081 35.833 104.309 36.0922C104.477 35.9243 104.645 35.9243 104.813 36.0922C104.966 35.8971 105.155 35.7502 105.38 35.6513C105.196 35.598 105.133 35.4931 105.191 35.3364C105.233 35.3783 105.275 35.4204 105.317 35.4624C105.443 35.1264 105.569 35.1264 105.695 35.4624C105.937 35.2167 106.21 35.0068 106.514 34.8325C106.664 34.8761 106.664 34.9391 106.514 35.0214C106.738 35.124 106.927 35.271 107.081 35.4624C107.33 35.3094 107.519 35.0994 107.647 34.8325C107.919 35.0172 107.961 35.2482 107.773 35.5254C107.978 35.5008 108.188 35.5008 108.403 35.5254C108.007 35.6411 107.881 35.872 108.025 36.2182C108.183 35.865 108.393 35.6341 108.655 35.5254C108.781 35.4413 108.907 35.4413 109.033 35.5254C108.671 35.6381 108.629 35.743 108.907 35.8403C109.253 35.7075 109.526 35.4976 109.726 35.2104C109.768 35.3783 109.81 35.5464 109.852 35.7143C109.965 35.5618 110.069 35.5618 110.167 35.7143C109.941 35.9918 109.647 36.1387 109.285 36.1552C109.133 36.2677 109.133 36.3727 109.285 36.4702C109.442 36.2214 109.631 36.1793 109.852 36.3442C110.062 36.0397 110.334 35.8088 110.671 35.6513C110.842 35.4518 110.926 35.2207 110.923 34.9585C111.055 34.9397 111.181 34.9606 111.301 35.0214C111.148 35.1339 111.148 35.2389 111.301 35.3364C111.395 35.226 111.458 35.1001 111.49 34.9585C111.569 35.2723 111.674 35.2723 111.805 34.9585C111.879 34.9848 111.941 35.0269 111.994 35.0844C112.186 34.9056 112.417 34.7796 112.687 34.7065C112.585 34.5086 112.543 34.2986 112.561 34.0766C112.305 34.097 112.053 34.076 111.805 34.0136C111.937 33.6032 112.189 33.4981 112.561 33.6987C112.477 33.7406 112.393 33.7827 112.309 33.8247C112.498 33.9808 112.645 33.9387 112.75 33.6987C113.05 33.8708 113.322 33.8288 113.568 33.5727C113.391 33.4791 113.223 33.3741 113.064 33.2578C113.227 32.969 113.437 32.7171 113.694 32.5019C113.524 32.2959 113.545 32.107 113.757 31.935C113.799 32.061 113.841 32.187 113.883 32.313C113.973 32.1274 114.12 32.0434 114.324 32.061C114.324 31.8931 114.324 31.725 114.324 31.5571C114.944 31.5111 114.986 31.6371 114.45 31.935C114.546 31.9868 114.672 32.0077 114.828 31.998C114.642 32.2549 114.39 32.3598 114.072 32.313C114.135 32.6895 114.198 33.0255 114.261 33.3208C114.396 33.2225 114.543 33.2435 114.702 33.3838C114.277 33.5129 113.941 33.7648 113.694 34.1396C113.899 34.5568 113.941 34.5568 113.82 34.1396C113.967 34.0766 114.072 33.9717 114.135 33.8247C114.261 33.9926 114.387 33.9926 114.513 33.8247C114.218 34.0339 114.029 34.3069 113.946 34.6435C114.105 34.7837 114.252 34.8048 114.387 34.7065C114.549 34.8416 114.591 35.0095 114.513 35.2104C114.721 34.8676 114.931 34.8257 115.143 35.0844C115.256 34.9319 115.361 34.9319 115.458 35.0844C115.227 35.2013 115.185 35.3482 115.332 35.5254C115.128 35.6028 114.961 35.7288 114.828 35.9033C114.889 36.0303 114.91 36.1773 114.891 36.3442C115.283 36.1964 115.304 36.2594 114.954 36.5332C115.048 36.7516 115.111 36.9825 115.143 37.226C115.237 37.0115 115.342 36.8015 115.458 36.5962C115.356 36.409 115.356 36.241 115.458 36.0922C115.562 36.3016 115.709 36.4695 115.899 36.5962C115.941 36.5542 115.983 36.5121 116.025 36.4702C116.064 36.6297 116.127 36.7767 116.214 36.9111C116.097 36.96 116.013 37.044 115.962 37.163C116.089 37.3316 116.215 37.4995 116.34 37.667C116.282 37.7191 116.24 37.7821 116.214 37.8559C116.456 37.8063 116.687 37.8903 116.907 38.1079C117.315 37.9141 117.378 37.6832 117.096 37.415C117.222 37.3731 117.348 37.331 117.474 37.289C117.295 36.9798 117.253 36.6648 117.348 36.3442C117.264 36.2602 117.18 36.1763 117.096 36.0922C117.222 35.9873 117.348 35.8822 117.474 35.7773C117.296 35.7309 117.17 35.626 117.096 35.4624C117.365 35.3399 117.512 35.1299 117.537 34.8325C117.705 34.8325 117.873 34.8325 118.041 34.8325C118.325 34.5534 118.493 34.2595 118.544 33.9506C118.586 34.0347 118.628 34.1186 118.67 34.2026C118.816 34.046 118.984 33.92 119.174 33.8247C119.354 33.9144 119.543 33.9354 119.741 33.8877C119.764 34.2201 119.764 34.5351 119.741 34.8325C119.951 34.7065 120.119 34.5386 120.245 34.3286C120.557 34.4445 120.766 34.3185 120.875 33.9506C121.026 33.9942 121.026 34.0572 120.875 34.1396C121.115 34.1647 121.304 34.2697 121.442 34.4546C121.619 34.2197 121.682 33.9888 121.631 33.7617C121.341 33.6155 121.383 33.4896 121.757 33.3838C121.611 33.2686 121.632 33.1637 121.82 33.0688C122.066 33.275 122.045 33.464 121.757 33.6357C121.799 33.6567 121.841 33.6777 121.883 33.6987C122.844 32.6463 122.97 32.7303 122.261 33.9506C122.416 34.049 122.583 34.112 122.765 34.1396C122.462 34.2292 122.169 34.2081 121.883 34.0766C121.948 34.2351 121.864 34.3611 121.631 34.4546C121.954 34.4025 122.269 34.4866 122.576 34.7065C122.736 34.5761 122.883 34.4291 123.017 34.2656C122.911 34.0557 122.974 34.0347 123.206 34.2026C123.627 33.7199 123.522 33.5939 122.891 33.8247C122.971 33.5778 122.971 33.3468 122.891 33.1318C123.051 32.7844 123.261 32.7424 123.521 33.0058C123.353 33.0898 123.353 33.1737 123.521 33.2578C123.646 33.2997 123.772 33.3418 123.898 33.3838C123.77 33.4491 123.687 33.5542 123.646 33.6987C123.83 33.7605 123.956 33.9286 124.024 34.2026C123.988 34.3971 123.904 34.565 123.772 34.7065C123.799 34.7803 123.841 34.8433 123.898 34.8955C123.716 35.0362 123.506 35.1202 123.269 35.1474C123.512 35.179 123.743 35.242 123.961 35.3364C124.159 35.1961 124.327 35.0281 124.465 34.8325C124.578 35.1506 124.515 35.4236 124.276 35.6513C124.449 35.702 124.617 35.765 124.78 35.8403C124.731 35.6869 124.815 35.5818 125.032 35.5254C124.864 35.2936 124.885 35.2306 125.095 35.3364C125.137 35.2524 125.179 35.1685 125.221 35.0844C125.337 35.243 125.443 35.411 125.536 35.5883C125.654 35.2606 125.864 35.0086 126.166 34.8325C126.025 34.8448 125.899 34.7818 125.788 34.6435C126.038 34.3943 126.289 34.1424 126.544 33.8877C126.418 33.8457 126.292 33.8036 126.166 33.7617C126.334 33.6357 126.502 33.5097 126.67 33.3838C126.529 33.3524 126.403 33.2894 126.292 33.1948C126.613 33.2036 126.887 33.0356 127.111 32.6909C127.175 32.8793 127.112 33.0264 126.922 33.1318C127.224 33.2332 127.203 33.3382 126.859 33.4467C126.774 33.6987 126.774 33.9506 126.859 34.2026C126.9 34.1607 126.943 34.1186 126.985 34.0766C127.122 34.1765 127.268 34.2605 127.426 34.3286C127.474 33.911 127.641 33.8899 127.93 34.2656C127.582 34.5865 127.373 34.9854 127.3 35.4624C127.36 35.5856 127.443 35.6905 127.552 35.7773C127.019 36.0469 126.473 36.1939 125.914 36.2182C125.743 35.9057 125.617 35.9476 125.536 36.3442C125.562 36.418 125.605 36.481 125.662 36.5332C125.049 36.7354 125.007 37.0082 125.536 37.352C125.758 37.3276 125.99 37.3276 126.229 37.352C126.554 36.9709 126.722 37.0129 126.733 37.478C126.598 37.3797 126.451 37.4008 126.292 37.541C126.408 37.5881 126.512 37.6511 126.607 37.7299C126.883 37.7957 127.176 37.7957 127.489 37.7299C127.8 37.401 127.821 37.0861 127.552 36.7851C127.675 36.7371 127.76 36.6322 127.804 36.4702C127.485 36.0871 127.611 35.8981 128.182 35.9033C128.097 35.8613 128.014 35.8193 127.93 35.7773C128.066 35.5199 128.276 35.352 128.56 35.2734C128.257 35.172 128.279 35.0671 128.623 34.9585C128.665 35.2254 128.771 35.2675 128.938 35.0844C128.938 66.3686 128.938 97.6528 128.938 128.937C85.9375 128.937 42.9375 128.937 -0.0625 128.937C-0.0625 89.9683 -0.0625 50.9994 -0.0625 12.0307C0.542746 11.8244 0.962668 11.4254 1.19727 10.8339C1.08184 10.7868 0.976862 10.7238 0.882324 10.645C0.867076 10.3644 0.762095 10.1335 0.567383 9.95211C0.793925 9.76248 1.02488 9.74149 1.26025 9.88912C1.38035 9.64282 1.54831 9.43286 1.76416 9.25924C1.85139 9.32542 1.91437 9.40939 1.95312 9.5112C1.74662 9.68958 1.64165 9.89953 1.63818 10.1411C1.98891 9.79035 2.19888 9.87434 2.26807 10.393C2.58836 10.2196 2.60936 10.0727 2.33105 9.95211C2.6234 9.73625 2.74937 9.84123 2.70898 10.2671C2.91608 10.294 3.10504 10.252 3.27588 10.1411C3.54204 10.6739 3.94097 10.7789 4.47266 10.456C4.80142 9.85089 4.88539 9.87188 4.72461 10.519C4.8086 10.603 4.89257 10.687 4.97656 10.771C4.78499 10.8188 4.57502 10.8398 4.34668 10.8339C4.45098 10.9492 4.57695 11.0332 4.72461 11.0859C4.64577 11.1804 4.58279 11.2854 4.53564 11.4008C4.39242 11.292 4.22446 11.166 4.03174 11.0229C3.90055 11.2856 3.71158 11.4956 3.46484 11.6528C3.31227 11.8065 3.31227 11.9535 3.46484 12.0937C3.13098 12.4978 3.15198 12.5607 3.52783 12.2827C3.58865 12.1633 3.60965 12.0373 3.59082 11.9047C3.72335 11.8859 3.84932 11.9069 3.96875 11.9677C3.81617 12.0802 3.81617 12.1852 3.96875 12.2827C4.18378 11.8603 4.51971 11.5874 4.97656 11.4638C4.85681 11.3734 4.83582 11.2685 4.91357 11.1489C5.09114 10.9867 5.2801 10.8397 5.48047 10.708C5.39648 10.624 5.3125 10.54 5.22852 10.456C5.79635 10.0151 6.19527 9.44817 6.42529 8.75534C6.61659 8.81109 6.76357 8.7271 6.86621 8.50338C6.9289 8.64239 6.97088 8.76836 6.99219 8.88131C7.09131 8.78783 7.17529 8.68285 7.24414 8.56637C7.13326 8.39553 7.09127 8.20657 7.11816 7.99948C7.25069 7.98064 7.37667 8.00164 7.49609 8.06246C7.40332 8.46544 7.5083 8.48644 7.81104 8.12545C8.04083 8.28276 8.01983 8.42972 7.74805 8.56637C7.97491 8.60634 8.01689 8.69033 7.87402 8.81832C8.00451 9.02202 8.15149 9.04302 8.31494 8.88131C8.33594 8.9443 8.35693 9.00729 8.37793 9.07028C8.01798 9.3424 7.95499 9.65734 8.18896 10.0151C8.41906 9.84613 8.56603 9.90912 8.62988 10.2041C8.53103 10.5424 8.42604 10.8573 8.31494 11.1489C8.51474 11.0385 8.7037 10.9126 8.88184 10.771C8.96906 10.8371 9.03205 10.9211 9.0708 11.0229C9.15479 10.687 9.23877 10.351 9.32275 10.0151C9.43798 10.1194 9.52197 10.2454 9.57471 10.393C9.6167 10.309 9.6587 10.2251 9.70068 10.1411C10.2822 10.4687 10.2192 10.6367 9.51172 10.645C9.48336 11.093 9.58834 11.135 9.82666 10.771C9.93666 10.8006 10.0416 10.8426 10.1416 10.8969C10.0765 10.7384 10.1605 10.6125 10.3936 10.519C10.218 10.3695 10.239 10.2855 10.4565 10.2671C10.5195 10.309 10.5825 10.351 10.6455 10.393C10.5082 10.5327 10.5082 10.6587 10.6455 10.771C10.889 10.6424 11.1409 10.6214 11.4014 10.708C11.5273 10.9179 11.6533 11.1279 11.7793 11.3379C11.6953 11.3798 11.6113 11.4218 11.5273 11.4638C11.6327 11.5912 11.6747 11.7382 11.6533 11.9047C11.7858 11.8859 11.9118 11.9069 12.0312 11.9677C11.9606 12.1789 11.8346 12.3469 11.6533 12.4716C11.7163 12.4926 11.7793 12.5136 11.8423 12.5346C12.1471 12.2302 12.504 12.0412 12.9131 11.9677C12.7056 12.3423 12.4537 12.6782 12.1572 12.9756C12.2148 13.0277 12.2568 13.0907 12.2832 13.1645C12.0467 13.18 11.8157 13.18 11.5903 13.1645C11.5903 12.9966 11.5903 12.8285 11.5903 12.6606C11.4267 12.7193 11.2377 12.7193 11.0234 12.6606C11.002 12.8271 11.044 12.9742 11.1494 13.1015C11.0299 13.1793 10.9249 13.1583 10.8345 13.0385C10.646 13.2842 10.625 13.5361 10.7715 13.7944C10.9773 13.7354 11.1243 13.6095 11.2124 13.4165C11.4365 13.5398 11.6464 13.4978 11.8423 13.2905C11.9683 13.3745 12.0942 13.4584 12.2202 13.5424C12.3787 13.2572 12.5257 12.9632 12.6611 12.6606C12.735 12.6869 12.7979 12.729 12.8501 12.7866C12.6164 13.0456 12.4904 13.3816 12.4722 13.7944C12.42 13.7368 12.357 13.6948 12.2832 13.6684C12.1275 13.8617 12.0645 14.0715 12.0942 14.2983C12.3183 13.9486 12.4443 13.9905 12.4722 14.4243C12.6667 14.1764 12.8137 13.9034 12.9131 13.6054C13.1396 13.4158 13.3706 13.3948 13.606 13.5424C13.69 13.3745 13.69 13.2065 13.606 13.0385C13.48 12.8706 13.354 12.8706 13.228 13.0385C13.1184 12.9619 13.0554 12.857 13.0391 12.7236C13.2245 12.2852 13.4974 12.0122 13.8579 11.9047C13.8999 12.0307 13.9419 12.1567 13.9839 12.2827C14.0275 12.0662 14.0905 11.8563 14.1729 11.6528C14.051 11.3845 13.904 11.1326 13.7319 10.8969C13.6558 10.3144 13.8027 10.2514 14.1729 10.708C14.053 10.7984 14.0321 10.9033 14.1099 11.0229C14.363 10.7656 14.6149 10.5136 14.8657 10.2671C14.9128 10.3825 14.9758 10.4875 15.0547 10.582C14.8273 10.7044 14.6173 10.8514 14.4248 11.0229C14.596 11.2504 14.5539 11.4394 14.2988 11.5898C14.4606 11.676 14.6076 11.655 14.7397 11.5268C14.8534 11.9431 15.0214 11.9851 15.2437 11.6528C15.4127 11.7552 15.5596 11.7972 15.6846 11.7788C15.3932 12.1328 15.4351 12.4687 15.8105 12.7866C15.3499 13.036 15.1609 13.4139 15.2437 13.9204C15.335 13.7115 15.482 13.6485 15.6846 13.7314C15.3486 13.8154 15.3486 13.8993 15.6846 13.9834C15.5766 14.0702 15.4927 14.1751 15.4326 14.2983C15.6661 14.457 15.897 14.457 16.1255 14.2983C16.1788 14.4817 16.2837 14.5447 16.4404 14.4873C16.3509 14.3292 16.2459 14.1823 16.1255 14.0464C16.02 14.2362 15.873 14.2992 15.6846 14.2353C15.9829 13.876 16.3189 13.5611 16.6924 13.2905C16.9765 13.5661 17.2495 13.5241 17.5112 13.1645C17.7239 13.2684 17.7449 13.3944 17.5742 13.5424C17.7192 13.6975 17.8661 13.6975 18.0151 13.5424C18.1013 13.7042 18.0803 13.8512 17.9521 13.9834C17.7322 14.0427 17.5222 14.1267 17.3223 14.2353C17.5507 14.2295 17.7605 14.2504 17.9521 14.2983C17.7987 14.4625 17.8407 14.5884 18.0781 14.6762C17.9247 15.0514 17.9666 15.4084 18.2041 15.747C17.905 16.0072 17.6322 15.9863 17.3853 15.684C17.3 15.9598 17.153 16.0018 16.9443 15.81C16.5561 16.0459 16.2201 16.3398 15.9365 16.6919C16.0027 16.779 16.0867 16.842 16.1885 16.8808C16.0687 16.9713 16.0478 17.0762 16.1255 17.1958C16.3744 17.0644 16.4374 16.8963 16.3145 16.6919C16.3672 16.5442 16.4511 16.4182 16.5664 16.3139C17.0392 16.4575 17.1231 16.6886 16.8184 17.0068C16.8603 17.0278 16.9024 17.0488 16.9443 17.0698C17.1543 16.9019 17.3642 16.9019 17.5742 17.0698C17.8381 16.8066 18.0691 16.8066 18.2671 17.0698C18.5269 16.7673 18.7369 16.4315 18.897 16.062C18.981 16.146 19.0649 16.2299 19.1489 16.3139C19.0599 16.0188 19.1018 15.7249 19.2749 15.4321C19.3148 15.659 19.3989 15.7009 19.5269 15.5581C19.5544 15.7392 19.6174 15.9072 19.7158 16.062C19.869 15.9987 20.016 15.9568 20.1567 15.936C20.2439 16.0021 20.3069 16.0862 20.3457 16.188C19.9829 16.4415 19.7309 16.7145 19.5898 17.0068C19.6528 17.0698 19.7158 17.1328 19.7788 17.1958C19.998 17.0426 20.124 16.8327 20.1567 16.5659C20.1955 16.6677 20.2585 16.7517 20.3457 16.8178C20.6717 16.7304 20.9656 16.5835 21.2275 16.3769C20.9286 16.1606 20.6137 15.9717 20.2827 15.81C20.0556 15.4113 20.0765 14.9914 20.3457 14.5503C20.5735 14.5014 20.7835 14.5014 20.9756 14.5503C20.7978 14.3592 20.8189 14.1911 21.0386 14.0464C21.0994 14.1658 21.1203 14.2918 21.1016 14.4243C21.4968 14.193 21.8117 13.857 22.0464 13.4165C22.1724 13.3324 22.2983 13.2485 22.4243 13.1645C22.443 13.4262 22.38 13.6781 22.2354 13.9204C21.9797 13.7781 21.9377 13.8411 22.1094 14.1093C22.0145 14.2967 21.9096 14.3177 21.7944 14.1723C21.4178 14.518 21.4388 14.665 21.8574 14.6132C21.8155 14.5713 21.7734 14.5292 21.7314 14.4873C21.9619 14.4529 22.1508 14.3478 22.2983 14.1723C22.338 14.3497 22.2961 14.5176 22.1724 14.6762C22.1304 14.6343 22.0883 14.5922 22.0464 14.5503C21.9624 14.8022 21.8785 15.0542 21.7944 15.3061C21.7556 15.2043 21.6926 15.1203 21.6055 15.0542C21.4038 15.1216 21.3408 15.2475 21.4165 15.4321C21.6216 15.3569 21.8316 15.399 22.0464 15.5581C22.2143 15.474 22.3403 15.3481 22.4243 15.1801C22.4714 15.2955 22.5344 15.4006 22.6133 15.4951C22.5115 15.5339 22.4275 15.5969 22.3613 15.684C22.5444 15.6286 22.6913 15.7125 22.8022 15.936C23.0122 15.684 23.2221 15.4321 23.4321 15.1801C23.6169 15.4802 23.5119 15.7111 23.1172 15.873C23.1779 16 23.1988 16.147 23.1802 16.3139C23.4079 16.0751 23.6809 16.0121 23.999 16.125C23.7839 16.3823 23.5319 16.5923 23.2432 16.7548C23.3089 16.8255 23.3509 16.9095 23.3691 17.0068C23.2055 17.1738 23.0376 17.3419 22.8652 17.5107C23.2327 17.8395 23.6106 18.0495 23.999 18.1406C23.8991 18.2773 23.8151 18.4243 23.7471 18.5815C23.873 18.7494 23.999 18.9175 24.125 19.0854C23.9484 19.2545 23.9903 19.3595 24.251 19.4004C23.978 19.5893 23.7051 19.7783 23.4321 19.9672C23.1309 19.8284 23.0679 19.9123 23.2432 20.2192C23.1996 20.3699 23.1366 20.3699 23.0542 20.2192C23.0122 20.3452 22.9702 20.4712 22.9282 20.5971C22.7938 20.3725 22.6048 20.3095 22.3613 20.4082C22.8245 20.53 22.9086 20.74 22.6133 21.0381C22.6343 21.101 22.6552 21.164 22.6763 21.227C22.9403 20.9103 23.2553 20.8263 23.6211 20.9751C23.4663 21.0735 23.2983 21.1364 23.1172 21.164C23.4321 21.269 23.4532 21.416 23.1802 21.6049C23.1414 21.5032 23.0784 21.4191 22.9912 21.353C22.9493 21.437 22.9072 21.5209 22.8652 21.6049C22.6756 21.2735 22.5917 21.3156 22.6133 21.7309C23.0187 21.7499 23.0606 21.8549 22.7393 22.0459C22.8501 22.2167 22.8922 22.4057 22.8652 22.6128C22.7172 22.5852 22.5912 22.6271 22.4873 22.7387C23.1876 22.9904 23.7545 22.7806 24.188 22.1089C24.3642 22.109 24.5532 22.1511 24.7549 22.2348C25.0049 21.9453 25.2569 21.9662 25.5107 22.2978C25.4212 22.4559 25.3162 22.6028 25.1958 22.7387C25.1181 22.6192 25.139 22.5142 25.2588 22.4238C24.6908 22.4597 24.1869 22.6697 23.7471 23.0537C23.9071 23.1671 24.033 23.3139 24.125 23.4946C24.273 23.3239 24.399 23.3449 24.5029 23.5576C24.3831 23.648 24.3622 23.753 24.4399 23.8725C24.6634 23.6015 24.8524 23.3076 25.0068 22.9907C25.1144 23.1731 25.2404 23.341 25.3848 23.4946C25.2808 23.6062 25.1549 23.6482 25.0068 23.6206C25.0283 23.7871 24.9863 23.9341 24.8809 24.0615C25.0068 24.1034 25.1328 24.1455 25.2588 24.1875C25.1081 24.2699 25.1081 24.3328 25.2588 24.3764C25.3523 24.1739 25.3733 23.9639 25.3218 23.7465C25.3637 23.7885 25.4058 23.8306 25.4478 23.8725C25.5391 23.6637 25.6861 23.6007 25.8887 23.6836C25.8046 23.8515 25.6787 23.9775 25.5107 24.0615C25.4738 24.3522 25.5789 24.6251 25.8257 24.8803C26.0285 24.6245 26.2594 24.6245 26.5186 24.8803C26.7186 24.8161 26.8656 24.6901 26.9595 24.5024C27.1091 24.6363 27.1721 24.8044 27.1484 25.0063C27.5387 25.0173 27.5808 24.9543 27.2744 24.8173C27.4423 24.7333 27.6104 24.6494 27.7783 24.5654C27.6346 24.472 27.6346 24.367 27.7783 24.2505C28.1845 23.8236 28.6463 23.4666 29.1641 23.1797C29.0797 22.73 28.8698 22.646 28.5342 22.9277C28.6602 22.9696 28.7861 23.0117 28.9121 23.0537C28.7162 23.2161 28.5063 23.3001 28.2822 23.3056C28.3242 23.2637 28.3663 23.2216 28.4082 23.1797C28.3064 23.1409 28.2224 23.0779 28.1562 22.9907C28.3486 22.7774 28.5165 22.5464 28.6602 22.2978C28.9111 22.2255 29.1001 22.0785 29.2271 21.8569C29.1904 22.4678 29.2534 23.0766 29.416 23.6836C29.1943 23.8051 29.1522 23.9521 29.29 24.1245C29.4537 24.0501 29.5586 23.9242 29.605 23.7465C29.8765 23.8956 30.1284 23.8536 30.3608 23.6206C30.5334 23.2993 30.6804 22.9634 30.8018 22.6128C30.652 22.4957 30.484 22.4538 30.2979 22.4868C30.2563 22.8155 30.0673 23.0255 29.731 23.1167C29.5644 22.868 29.6274 22.6369 29.9199 22.4238C29.3893 21.966 29.4314 21.714 30.0459 21.6679C30.2138 21.5839 30.2138 21.5 30.0459 21.416C30.1935 21.3632 30.3195 21.2793 30.4238 21.164C30.2293 21.1275 30.0614 21.0436 29.9199 20.9121C30.1288 20.5751 30.3597 20.2601 30.6128 19.9672C30.7357 19.4946 30.6518 19.4107 30.3608 19.7153C30.322 19.6135 30.2591 19.5295 30.1719 19.4633C29.9684 19.5457 29.7584 19.6087 29.542 19.6523C29.7099 19.6943 29.878 19.7363 30.0459 19.7783C30.0304 20.0037 30.0304 20.2346 30.0459 20.4712C29.9043 20.6493 29.7783 20.8383 29.668 21.0381C29.752 21.08 29.8359 21.1221 29.9199 21.164C29.7099 21.311 29.5 21.4579 29.29 21.6049C29.1954 21.4946 29.1324 21.3686 29.1011 21.227C28.9572 21.7918 28.6214 22.2116 28.0933 22.4868C28.0536 22.3094 28.0955 22.1415 28.2192 21.9829C28.4609 21.8516 28.6918 21.7047 28.9121 21.542C28.6636 21.2881 28.4536 21.3092 28.2822 21.6049C28.2403 21.563 28.1982 21.5209 28.1562 21.479C28.3 21.3624 28.3 21.2574 28.1562 21.164C28.258 21.1252 28.3421 21.0622 28.4082 20.9751C28.3107 20.8225 28.2058 20.8225 28.0933 20.9751C28.0026 20.772 28.0235 20.583 28.1562 20.4082C27.9503 20.3401 27.7824 20.4031 27.6523 20.5971C27.6104 20.5552 27.5683 20.5131 27.5264 20.4712C27.7409 20.296 27.8249 20.1071 27.7783 19.9043C27.8674 19.998 28.0354 20.061 28.2822 20.0932C28.1751 19.6609 28.1751 19.2829 28.2822 18.9594C28.1654 19.2676 27.9554 19.3725 27.6523 19.2744C28.3623 18.6369 28.3203 18.511 27.5264 18.8964C27.677 18.9788 27.677 19.0418 27.5264 19.0854C27.4004 19.0224 27.2744 18.9594 27.1484 18.8964C27.3087 18.7318 27.4347 18.5428 27.5264 18.3296C27.5891 18.4685 27.6311 18.5945 27.6523 18.7075C27.7565 18.4981 27.9034 18.3302 28.0933 18.2036C28.3598 18.3535 28.6118 18.5214 28.8491 18.7075C28.9566 18.5028 29.0826 18.4608 29.2271 18.5815C29.2977 18.229 29.1507 17.9981 28.7861 17.8886C28.855 17.7721 28.9389 17.6672 29.0381 17.5737C29.1893 17.7036 29.3573 17.8086 29.542 17.8886C29.4371 18.1508 29.4371 18.4238 29.542 18.7075C29.1612 18.7096 28.8252 18.8356 28.5342 19.0854C28.6599 19.4039 28.7648 19.4039 28.8491 19.0854C28.8911 19.1274 28.9331 19.1694 28.9751 19.2114C29.3694 19.0038 29.7893 18.8357 30.2349 18.7075C30.1089 18.9594 29.9829 19.2114 29.8569 19.4633C30.2349 19.3374 30.4868 19.0854 30.6128 18.7075C30.9188 18.7741 31.1497 18.9422 31.3057 19.2114C31.1559 19.3284 30.988 19.3704 30.8018 19.3374C30.783 19.4699 30.8039 19.5959 30.8647 19.7153C31.0739 19.7375 31.2837 19.6534 31.4946 19.4633C31.7045 19.5692 31.7255 19.5062 31.5576 19.2744C31.6206 19.2114 31.6836 19.1484 31.7466 19.0854C31.7919 19.3274 31.897 19.5374 32.0615 19.7153C32.0352 19.7891 31.9931 19.8521 31.9355 19.9043C32.0826 19.9672 32.1875 20.0722 32.2505 20.2192C32.4058 19.8517 32.5948 19.5157 32.8174 19.2114C32.8471 19.3055 32.8892 19.4104 32.9434 19.5263C32.7599 19.5796 32.6969 19.6846 32.7544 19.8413C32.8865 19.7132 33.0336 19.6921 33.1953 19.7783C33.2696 19.9684 33.3535 20.1573 33.4473 20.3452C33.499 20.2492 33.52 20.1232 33.5103 19.9672C33.7554 20.3074 33.6924 20.6013 33.3213 20.8491C33.5129 21.0741 33.5548 21.305 33.4473 21.542C33.167 21.5721 33.125 21.467 33.3213 21.227C33.1657 20.9065 33.0188 20.9065 32.8804 21.227C32.8282 21.1694 32.7652 21.1274 32.6914 21.101C32.4576 21.6077 32.0797 21.9647 31.5576 22.1718C31.9265 22.2172 32.0104 22.3851 31.8096 22.6757C32.1225 22.8781 32.1225 23.067 31.8096 23.2426C31.9517 23.3386 32.0987 23.4227 32.2505 23.4946C32.2205 23.1718 32.3465 22.8778 32.6284 22.6128C32.6704 22.7387 32.7124 22.8647 32.7544 22.9907C32.8792 22.8094 33.0472 22.6834 33.2583 22.6128C33.199 22.8437 33.094 23.0746 32.9434 23.3056C33.3544 23.4151 33.3964 23.5832 33.0693 23.8095C33.2865 23.866 33.3705 23.971 33.3213 24.1245C33.5217 23.7302 33.7316 23.3312 33.9512 22.9277C33.9092 22.8857 33.8671 22.8437 33.8252 22.8017C34.0155 22.5983 34.1835 22.5983 34.3291 22.8017C34.1136 22.9445 34.0506 23.1334 34.1401 23.3686C34.3466 23.0781 34.5986 22.8262 34.896 22.6128C34.9379 22.6968 34.98 22.7807 35.022 22.8647C35.1493 22.7593 35.2963 22.7173 35.4629 22.7387C35.4817 23.1951 35.6287 23.2372 35.9038 22.8647C36.0011 22.883 36.0851 22.9249 36.1558 22.9907C36.2078 22.6465 36.2918 22.3105 36.4077 21.9829C36.4662 22.0577 36.4872 22.1417 36.4707 22.2348Z" fill="#FAFAFA"/>
<path fill-rule="evenodd" clip-rule="evenodd" d="M-0.0625 -0.0629883C42.9375 -0.0629883 85.9375 -0.0629883 128.938 -0.0629883C128.938 11.6528 128.938 23.3687 128.938 35.0845C128.771 35.2675 128.665 35.2254 128.623 34.9585C128.279 35.0671 128.257 35.172 128.56 35.2734C128.276 35.352 128.066 35.52 127.93 35.7773C128.014 35.8193 128.097 35.8614 128.182 35.9033C127.611 35.8982 127.485 36.0871 127.804 36.4702C127.76 36.6322 127.675 36.7372 127.552 36.7852C127.821 37.0861 127.8 37.4011 127.489 37.73C127.176 37.7957 126.883 37.7957 126.607 37.73C126.512 37.6511 126.408 37.5881 126.292 37.541C126.451 37.4008 126.598 37.3798 126.733 37.478C126.722 37.0129 126.554 36.971 126.229 37.3521C125.99 37.3276 125.758 37.3276 125.536 37.3521C125.007 37.0083 125.049 36.7354 125.662 36.5332C125.605 36.481 125.562 36.4181 125.536 36.3442C125.617 35.9477 125.743 35.9057 125.914 36.2183C126.473 36.1939 127.019 36.0469 127.552 35.7773C127.443 35.6905 127.36 35.5856 127.3 35.4624C127.373 34.9855 127.582 34.5865 127.93 34.2656C127.641 33.89 127.474 33.911 127.426 34.3286C127.268 34.2606 127.122 34.1766 126.985 34.0767C126.943 34.1186 126.9 34.1607 126.859 34.2026C126.774 33.9507 126.774 33.6987 126.859 33.4468C127.203 33.3382 127.224 33.2332 126.922 33.1318C127.112 33.0264 127.175 32.8794 127.111 32.6909C126.887 33.0356 126.613 33.2036 126.292 33.1948C126.403 33.2894 126.529 33.3524 126.67 33.3838C126.502 33.5098 126.334 33.6357 126.166 33.7617C126.292 33.8037 126.418 33.8457 126.544 33.8877C126.289 34.1424 126.038 34.3944 125.788 34.6436C125.899 34.7819 126.025 34.8449 126.166 34.8325C125.864 35.0086 125.654 35.2606 125.536 35.5884C125.443 35.411 125.337 35.2431 125.221 35.0845C125.179 35.1685 125.137 35.2524 125.095 35.3364C124.885 35.2306 124.864 35.2936 125.032 35.5254C124.815 35.5818 124.731 35.6869 124.78 35.8403C124.617 35.765 124.449 35.702 124.276 35.6514C124.515 35.4236 124.578 35.1506 124.465 34.8325C124.327 35.0282 124.159 35.1961 123.961 35.3364C123.743 35.2421 123.512 35.1791 123.269 35.1475C123.506 35.1203 123.716 35.0362 123.898 34.8955C123.841 34.8434 123.799 34.7804 123.772 34.7065C123.904 34.5651 123.988 34.3971 124.024 34.2026C123.956 33.9286 123.83 33.7606 123.646 33.6987C123.687 33.5542 123.77 33.4492 123.898 33.3838C123.772 33.3418 123.646 33.2998 123.521 33.2578C123.353 33.1738 123.353 33.0899 123.521 33.0059C123.261 32.7424 123.051 32.7844 122.891 33.1318C122.971 33.3469 122.971 33.5778 122.891 33.8247C123.522 33.5939 123.627 33.7199 123.206 34.2026C122.974 34.0347 122.911 34.0557 123.017 34.2656C122.883 34.4291 122.736 34.5762 122.576 34.7065C122.269 34.4866 121.954 34.4026 121.631 34.4546C121.864 34.3611 121.948 34.2351 121.883 34.0767C122.169 34.2082 122.462 34.2292 122.765 34.1396C122.583 34.1121 122.416 34.0491 122.261 33.9507C122.97 32.7304 122.844 32.6463 121.883 33.6987C121.841 33.6777 121.799 33.6568 121.757 33.6357C122.045 33.464 122.066 33.2751 121.82 33.0688C121.632 33.1637 121.611 33.2686 121.757 33.3838C121.383 33.4896 121.341 33.6156 121.631 33.7617C121.682 33.9889 121.619 34.2198 121.442 34.4546C121.304 34.2698 121.115 34.1647 120.875 34.1396C121.026 34.0573 121.026 33.9943 120.875 33.9507C120.766 34.3185 120.557 34.4445 120.245 34.3286C120.119 34.5386 119.951 34.7065 119.741 34.8325C119.764 34.5351 119.764 34.2201 119.741 33.8877C119.543 33.9354 119.354 33.9144 119.174 33.8247C118.984 33.9201 118.816 34.046 118.67 34.2026C118.628 34.1186 118.586 34.0347 118.544 33.9507C118.493 34.2596 118.325 34.5535 118.041 34.8325C117.873 34.8325 117.705 34.8325 117.537 34.8325C117.512 35.13 117.365 35.34 117.096 35.4624C117.17 35.626 117.296 35.731 117.474 35.7773C117.348 35.8823 117.222 35.9873 117.096 36.0923C117.18 36.1763 117.264 36.2602 117.348 36.3442C117.253 36.6648 117.295 36.9798 117.474 37.2891C117.348 37.331 117.222 37.3731 117.096 37.415C117.378 37.6832 117.315 37.9142 116.907 38.1079C116.687 37.8904 116.456 37.8063 116.214 37.856C116.24 37.7821 116.282 37.7191 116.34 37.667C116.215 37.4996 116.089 37.3316 115.962 37.1631C116.013 37.044 116.097 36.96 116.214 36.9111C116.127 36.7767 116.064 36.6297 116.025 36.4702C115.983 36.5122 115.941 36.5542 115.899 36.5962C115.709 36.4696 115.562 36.3017 115.458 36.0923C115.356 36.2411 115.356 36.409 115.458 36.5962C115.342 36.8015 115.237 37.0115 115.143 37.2261C115.111 36.9826 115.048 36.7516 114.954 36.5332C115.304 36.2595 115.283 36.1965 114.891 36.3442C114.91 36.1773 114.889 36.0303 114.828 35.9033C114.961 35.7288 115.128 35.6029 115.332 35.5254C115.185 35.3483 115.227 35.2014 115.458 35.0845C115.361 34.9319 115.256 34.9319 115.143 35.0845C114.931 34.8257 114.721 34.8677 114.513 35.2104C114.591 35.0095 114.549 34.8416 114.387 34.7065C114.252 34.8048 114.105 34.7838 113.946 34.6436C114.029 34.3069 114.218 34.034 114.513 33.8247C114.387 33.9926 114.261 33.9926 114.135 33.8247C114.072 33.9717 113.967 34.0767 113.82 34.1396C113.941 34.5569 113.899 34.5569 113.694 34.1396C113.941 33.7649 114.277 33.5129 114.702 33.3838C114.543 33.2436 114.396 33.2225 114.261 33.3208C114.198 33.0255 114.135 32.6895 114.072 32.313C114.39 32.3599 114.642 32.2549 114.828 31.998C114.672 32.0077 114.546 31.9868 114.45 31.9351C114.986 31.6371 114.944 31.5111 114.324 31.5571C114.324 31.7251 114.324 31.8931 114.324 32.061C114.12 32.0434 113.973 32.1274 113.883 32.313C113.841 32.187 113.799 32.061 113.757 31.9351C113.545 32.107 113.524 32.296 113.694 32.502C113.437 32.7171 113.227 32.9691 113.064 33.2578C113.223 33.3741 113.391 33.4792 113.568 33.5728C113.322 33.8289 113.05 33.8708 112.75 33.6987C112.645 33.9387 112.498 33.9808 112.309 33.8247C112.393 33.7828 112.477 33.7407 112.561 33.6987C112.189 33.4982 111.937 33.6032 111.805 34.0137C112.053 34.076 112.305 34.0971 112.561 34.0767C112.543 34.2986 112.585 34.5086 112.687 34.7065C112.417 34.7796 112.186 34.9056 111.994 35.0845C111.941 35.0269 111.879 34.9848 111.805 34.9585C111.674 35.2723 111.569 35.2723 111.49 34.9585C111.458 35.1001 111.395 35.2261 111.301 35.3364C111.148 35.2389 111.148 35.134 111.301 35.0215C111.181 34.9606 111.055 34.9397 110.923 34.9585C110.926 35.2208 110.842 35.4518 110.671 35.6514C110.334 35.8088 110.062 36.0398 109.852 36.3442C109.631 36.1793 109.442 36.2214 109.285 36.4702C109.133 36.3727 109.133 36.2678 109.285 36.1553C109.647 36.1388 109.941 35.9919 110.167 35.7144C110.069 35.5618 109.965 35.5618 109.852 35.7144C109.81 35.5464 109.768 35.3784 109.726 35.2104C109.526 35.4977 109.253 35.7076 108.907 35.8403C108.629 35.7431 108.671 35.6381 109.033 35.5254C108.907 35.4414 108.781 35.4414 108.655 35.5254C108.393 35.6341 108.183 35.865 108.025 36.2183C107.881 35.8721 108.007 35.6412 108.403 35.5254C108.188 35.5008 107.978 35.5008 107.773 35.5254C107.961 35.2482 107.919 35.0172 107.647 34.8325C107.519 35.0995 107.33 35.3095 107.081 35.4624C106.927 35.271 106.738 35.124 106.514 35.0215C106.664 34.9391 106.664 34.8761 106.514 34.8325C106.21 35.0069 105.937 35.2167 105.695 35.4624C105.569 35.1264 105.443 35.1264 105.317 35.4624C105.275 35.4205 105.233 35.3784 105.191 35.3364C105.133 35.4931 105.196 35.5981 105.38 35.6514C105.155 35.7503 104.966 35.8971 104.813 36.0923C104.645 35.9244 104.477 35.9244 104.309 36.0923C104.081 35.833 103.808 35.791 103.49 35.9663C103.47 36.1393 103.491 36.3073 103.553 36.4702C103.636 36.3195 103.699 36.3195 103.742 36.4702C103.529 36.6914 103.277 36.7544 102.986 36.6592C103.42 36.6313 103.462 36.5054 103.112 36.2812C103.431 36.1531 103.431 36.0061 103.112 35.8403C103.344 35.7484 103.575 35.6643 103.805 35.5884C103.965 35.603 104.133 35.6449 104.309 35.7144C104.744 35.175 104.66 35.091 104.057 35.4624C103.953 35.316 103.848 35.169 103.742 35.0215C103.766 34.7922 103.787 34.5613 103.805 34.3286C103.69 34.4329 103.606 34.5589 103.553 34.7065C103.522 34.5649 103.459 34.439 103.364 34.3286C103.265 34.6221 103.139 34.9581 102.986 35.3364C102.996 35.1082 102.954 34.8562 102.86 34.5806C102.557 34.8721 102.2 34.8721 101.79 34.5806C101.769 34.8547 101.664 35.0856 101.475 35.2734C101.133 35.3708 100.818 35.5178 100.53 35.7144C100.242 35.3872 99.9905 35.5132 99.7739 36.0923C99.7276 35.9147 99.6226 35.7887 99.459 35.7144C99.2809 35.856 99.0919 35.9819 98.8921 36.0923C98.8501 36.0503 98.8081 36.0083 98.7661 35.9663C98.0851 36.1196 98.064 36.2666 98.7031 36.4072C98.4415 36.4314 98.1895 36.4944 97.9473 36.5962C98.1124 36.6917 98.1754 36.8177 98.1362 36.9741C97.9543 37.1826 97.7233 37.2666 97.4434 37.2261C97.4334 37.0459 97.4754 36.8779 97.5693 36.7222C97.2795 36.575 97.1115 36.3861 97.0654 36.1553C97.2409 35.8173 97.4088 35.7962 97.5693 36.0923C97.6861 35.8891 97.7912 35.6792 97.8843 35.4624C97.9262 35.5464 97.9683 35.6303 98.0103 35.7144C98.1865 35.6228 98.3755 35.5598 98.5771 35.5254C98.8784 35.3605 98.8784 35.2345 98.5771 35.1475C98.672 34.9601 98.7769 34.9391 98.8921 35.0845C98.9815 34.8989 99.1284 34.8149 99.333 34.8325C99.3819 34.5573 99.5079 34.3263 99.7109 34.1396C99.669 34.0767 99.6269 34.0137 99.585 33.9507C99.4343 33.9943 99.4343 34.0573 99.585 34.1396C99.3397 34.394 99.0458 34.583 98.7031 34.7065C98.54 34.6312 98.3721 34.5682 98.1992 34.5176C98.4223 34.4502 98.4643 34.3451 98.3252 34.2026C98.0343 34.3476 97.7613 34.5156 97.5063 34.7065C97.2894 34.6926 97.2685 34.6296 97.4434 34.5176C97.1137 34.5503 96.8828 34.7393 96.7505 35.0845C96.7117 34.9827 96.6487 34.8987 96.5615 34.8325C96.4218 34.9698 96.2958 34.9698 96.1836 34.8325C96.3096 34.7485 96.4355 34.6646 96.5615 34.5806C96.6883 34.4677 96.6883 34.3838 96.5615 34.3286C96.2316 34.4702 95.9587 34.6801 95.7427 34.9585C95.3076 34.3174 94.8877 34.3174 94.4829 34.9585C94.4199 34.8955 94.3569 34.8325 94.2939 34.7695C94.5758 34.5138 94.7647 34.1989 94.8608 33.8247C94.9028 33.9087 94.9449 33.9926 94.9868 34.0767C95.3942 33.6034 95.2472 33.3934 94.5459 33.4468C94.5261 33.2738 94.5472 33.1058 94.6089 32.9429C94.8116 33.0248 95.0005 32.9618 95.1758 32.7539C95.0809 32.5666 94.976 32.5455 94.8608 32.6909C94.7779 32.4883 94.8409 32.3413 95.0498 32.25C94.8695 32.1914 94.7226 32.0864 94.6089 31.9351C94.5824 32.0992 94.6035 32.2671 94.6719 32.439C94.4619 32.7749 94.252 33.1108 94.042 33.4468C93.8883 33.2942 93.7413 33.2942 93.6011 33.4468C93.5591 33.3628 93.517 33.2789 93.4751 33.1948C93.2075 33.3362 92.9766 33.5251 92.7822 33.7617C93.1657 33.8069 93.2078 33.891 92.9082 34.0137C93.0761 34.1396 93.2442 34.2656 93.4121 34.3916C93.0347 34.4574 92.7408 34.6463 92.5303 34.9585C92.4565 34.9322 92.3935 34.8901 92.3413 34.8325C92.2584 35.0351 92.3214 35.1821 92.5303 35.2734C92.2868 35.3051 92.0558 35.368 91.8374 35.4624C91.8766 35.6432 91.8557 35.8111 91.7744 35.9663C91.9004 36.0712 92.0264 36.1763 92.1523 36.2812C91.7493 36.1058 91.3295 36.0637 90.8926 36.1553C91.113 35.9891 91.365 35.9261 91.6484 35.9663C91.6074 35.6941 91.4814 35.4632 91.2705 35.2734C91.4544 35.1713 91.4964 35.0662 91.3965 34.9585C90.8613 35.3198 90.3574 35.4037 89.8848 35.2104C89.9582 34.7393 90.1891 34.4873 90.5776 34.4546C90.6617 34.3286 90.6617 34.2026 90.5776 34.0767C90.5102 34.2998 90.4052 34.3417 90.2627 34.2026C90.4076 33.8703 90.5756 33.5554 90.7666 33.2578C90.5454 33.2324 90.3355 33.1694 90.1367 33.0688C90.3702 32.9101 90.6011 32.9101 90.8296 33.0688C90.9096 32.8842 91.0146 32.7161 91.1445 32.5649C90.9567 32.4712 90.7677 32.3873 90.5776 32.313C90.2638 32.5385 89.9908 32.8115 89.7588 33.1318C89.8757 33.1807 89.9597 33.2647 90.0107 33.3838C89.7782 33.5212 89.6942 33.6892 89.7588 33.8877C90.3258 33.7702 90.3678 33.8542 89.8848 34.1396C89.9902 34.267 90.0322 34.414 90.0107 34.5806C89.4475 34.6022 89.4055 34.7073 89.8848 34.8955C89.2942 35.0273 88.9372 35.3422 88.814 35.8403C88.7618 35.7828 88.6988 35.7407 88.625 35.7144C88.3661 35.9609 88.0722 36.1499 87.7432 36.2812C87.845 36.32 87.929 36.383 87.9951 36.4702C87.8426 36.6433 87.7166 36.8323 87.6172 37.0371C87.7195 37.6025 87.6144 37.6235 87.3022 37.1001C87.1724 37.4829 86.9413 37.7979 86.6094 38.0449C86.6669 38.0971 86.709 38.1601 86.7354 38.2339C86.5463 38.3916 86.3363 38.5176 86.1055 38.6118C85.7506 38.1392 85.8766 37.8242 86.4834 37.667C86.3358 37.6142 86.2098 37.5303 86.1055 37.415C85.735 37.3937 85.42 37.4567 85.1606 37.604C84.9033 37.4681 84.7353 37.2581 84.6567 36.9741C84.3977 37.0081 84.1247 37.0711 83.8379 37.1631C84.0534 37.0204 84.1164 36.8314 84.0269 36.5962C83.8908 37.0512 83.6178 37.1772 83.208 36.9741C83.5612 36.8187 83.8342 36.5667 84.0269 36.2183C84.1542 36.3237 84.3012 36.3657 84.4678 36.3442C84.4678 36.1763 84.4678 36.0083 84.4678 35.8403C84.6778 35.8403 84.8876 35.8403 85.0977 35.8403C85.1164 35.7078 85.0955 35.5818 85.0347 35.4624C84.6145 35.6092 84.2366 35.8192 83.9009 36.0923C83.7369 36.0186 83.5898 35.9347 83.46 35.8403C86.97 34.7035 89.4685 32.4359 90.9556 29.0376C92.4027 24.8697 91.7307 21.0904 88.9399 17.6997C85.4767 14.1381 81.2985 12.8573 76.4053 13.8574C75.4521 12.4002 74.3183 11.0985 73.0039 9.95215C68.9868 7.16381 64.5776 6.32396 59.7764 7.43262C56.1322 8.53881 53.3187 10.7014 51.3359 13.9204C50.8091 13.7287 50.2632 13.6237 49.6982 13.6055C48.6485 13.5214 47.5986 13.5214 46.5488 13.6055C41.4807 14.518 38.1212 17.3946 36.4707 22.2349C36.4872 22.1418 36.4662 22.0577 36.4077 21.9829C36.2918 22.3106 36.2078 22.6466 36.1558 22.9907C36.0851 22.925 36.0011 22.883 35.9038 22.8647C35.6287 23.2373 35.4817 23.1952 35.4629 22.7388C35.2963 22.7174 35.1493 22.7593 35.022 22.8647C34.98 22.7807 34.9379 22.6968 34.896 22.6128C34.5986 22.8262 34.3466 23.0781 34.1401 23.3687C34.0506 23.1335 34.1136 22.9445 34.3291 22.8018C34.1835 22.5983 34.0155 22.5983 33.8252 22.8018C33.8671 22.8437 33.9092 22.8858 33.9512 22.9277C33.7316 23.3312 33.5217 23.7302 33.3213 24.1245C33.3705 23.9711 33.2865 23.866 33.0693 23.8096C33.3964 23.5832 33.3544 23.4151 32.9434 23.3057C33.094 23.0746 33.199 22.8437 33.2583 22.6128C33.0472 22.6835 32.8792 22.8094 32.7544 22.9907C32.7124 22.8647 32.6704 22.7388 32.6284 22.6128C32.3465 22.8778 32.2205 23.1719 32.2505 23.4946C32.0987 23.4227 31.9517 23.3387 31.8096 23.2427C32.1225 23.0671 32.1225 22.8781 31.8096 22.6758C32.0104 22.3852 31.9265 22.2172 31.5576 22.1719C32.0797 21.9648 32.4576 21.6078 32.6914 21.1011C32.7652 21.1274 32.8282 21.1695 32.8804 21.2271C33.0188 20.9066 33.1657 20.9066 33.3213 21.2271C33.125 21.467 33.167 21.5721 33.4473 21.542C33.5548 21.305 33.5129 21.0741 33.3213 20.8491C33.6924 20.6013 33.7554 20.3074 33.5103 19.9673C33.52 20.1232 33.499 20.2492 33.4473 20.3452C33.3535 20.1574 33.2696 19.9684 33.1953 19.7783C33.0336 19.6922 32.8865 19.7132 32.7544 19.8413C32.6969 19.6846 32.7599 19.5797 32.9434 19.5264C32.8892 19.4105 32.8471 19.3055 32.8174 19.2114C32.5948 19.5158 32.4058 19.8518 32.2505 20.2192C32.1875 20.0722 32.0826 19.9673 31.9355 19.9043C31.9931 19.8521 32.0352 19.7892 32.0615 19.7153C31.897 19.5375 31.7919 19.3274 31.7466 19.0854C31.6836 19.1484 31.6206 19.2114 31.5576 19.2744C31.7255 19.5062 31.7045 19.5692 31.4946 19.4634C31.2837 19.6535 31.0739 19.7375 30.8647 19.7153C30.8039 19.5959 30.783 19.4699 30.8018 19.3374C30.988 19.3704 31.1559 19.3285 31.3057 19.2114C31.1497 18.9422 30.9188 18.7742 30.6128 18.7075C30.4868 19.0854 30.2349 19.3374 29.8569 19.4634C29.9829 19.2114 30.1089 18.9595 30.2349 18.7075C29.7893 18.8358 29.3694 19.0038 28.9751 19.2114C28.9331 19.1695 28.8911 19.1274 28.8491 19.0854C28.7648 19.4039 28.6599 19.4039 28.5342 19.0854C28.8252 18.8356 29.1612 18.7097 29.542 18.7075C29.4371 18.4238 29.4371 18.1508 29.542 17.8887C29.3573 17.8087 29.1893 17.7036 29.0381 17.5737C28.9389 17.6672 28.855 17.7721 28.7861 17.8887C29.1507 17.9981 29.2977 18.2291 29.2271 18.5815C29.0826 18.4609 28.9566 18.5028 28.8491 18.7075C28.6118 18.5215 28.3598 18.3535 28.0933 18.2036C27.9034 18.3302 27.7565 18.4981 27.6523 18.7075C27.6311 18.5945 27.5891 18.4685 27.5264 18.3296C27.4347 18.5429 27.3087 18.7318 27.1484 18.8965C27.2744 18.9595 27.4004 19.0225 27.5264 19.0854C27.677 19.0419 27.677 18.9789 27.5264 18.8965C28.3203 18.511 28.3623 18.637 27.6523 19.2744C27.9554 19.3725 28.1654 19.2676 28.2822 18.9595C28.1751 19.283 28.1751 19.6609 28.2822 20.0933C28.0354 20.061 27.8674 19.998 27.7783 19.9043C27.8249 20.1071 27.7409 20.2961 27.5264 20.4712C27.5683 20.5131 27.6104 20.5552 27.6523 20.5972C27.7824 20.4032 27.9503 20.3402 28.1562 20.4082C28.0235 20.5831 28.0026 20.772 28.0933 20.9751C28.2058 20.8225 28.3107 20.8225 28.4082 20.9751C28.3421 21.0623 28.258 21.1253 28.1562 21.1641C28.3 21.2574 28.3 21.3625 28.1562 21.479C28.1982 21.521 28.2403 21.563 28.2822 21.605C28.4536 21.3092 28.6636 21.2881 28.9121 21.542C28.6918 21.7048 28.4609 21.8516 28.2192 21.9829C28.0955 22.1415 28.0536 22.3094 28.0933 22.4868C28.6214 22.2117 28.9572 21.7918 29.1011 21.2271C29.1324 21.3686 29.1954 21.4946 29.29 21.605C29.5 21.458 29.7099 21.3111 29.9199 21.1641C29.8359 21.1221 29.752 21.08 29.668 21.0381C29.7783 20.8383 29.9043 20.6493 30.0459 20.4712C30.0304 20.2346 30.0304 20.0037 30.0459 19.7783C29.878 19.7364 29.7099 19.6943 29.542 19.6523C29.7584 19.6088 29.9684 19.5458 30.1719 19.4634C30.2591 19.5295 30.322 19.6135 30.3608 19.7153C30.6518 19.4107 30.7357 19.4946 30.6128 19.9673C30.3597 20.2602 30.1288 20.5751 29.9199 20.9121C30.0614 21.0436 30.2293 21.1275 30.4238 21.1641C30.3195 21.2793 30.1935 21.3632 30.0459 21.416C30.2138 21.5 30.2138 21.5839 30.0459 21.668C29.4314 21.7141 29.3893 21.966 29.9199 22.4238C29.6274 22.637 29.5644 22.868 29.731 23.1167C30.0673 23.0255 30.2563 22.8155 30.2979 22.4868C30.484 22.4538 30.652 22.4958 30.8018 22.6128C30.6804 22.9634 30.5334 23.2994 30.3608 23.6206C30.1284 23.8537 29.8765 23.8956 29.605 23.7466C29.5586 23.9242 29.4537 24.0502 29.29 24.1245C29.1522 23.9522 29.1943 23.8052 29.416 23.6836C29.2534 23.0766 29.1904 22.4678 29.2271 21.8569C29.1001 22.0785 28.9111 22.2255 28.6602 22.2979C28.5165 22.5464 28.3486 22.7774 28.1562 22.9907C28.2224 23.0779 28.3064 23.1409 28.4082 23.1797C28.3663 23.2216 28.3242 23.2637 28.2822 23.3057C28.5063 23.3001 28.7162 23.2161 28.9121 23.0537C28.7861 23.0118 28.6602 22.9697 28.5342 22.9277C28.8698 22.6461 29.0797 22.7301 29.1641 23.1797C28.6463 23.4667 28.1845 23.8237 27.7783 24.2505C27.6346 24.367 27.6346 24.4721 27.7783 24.5654C27.6104 24.6495 27.4423 24.7334 27.2744 24.8174C27.5808 24.9543 27.5387 25.0173 27.1484 25.0063C27.1721 24.8044 27.1091 24.6364 26.9595 24.5024C26.8656 24.6901 26.7186 24.8161 26.5186 24.8804C26.2594 24.6245 26.0285 24.6245 25.8257 24.8804C25.5789 24.6251 25.4738 24.3523 25.5107 24.0615C25.6787 23.9775 25.8046 23.8515 25.8887 23.6836C25.6861 23.6007 25.5391 23.6637 25.4478 23.8726C25.4058 23.8306 25.3637 23.7885 25.3218 23.7466C25.3733 23.9639 25.3523 24.1739 25.2588 24.3765C25.1081 24.3329 25.1081 24.2699 25.2588 24.1875C25.1328 24.1455 25.0068 24.1035 24.8809 24.0615C24.9863 23.9342 25.0283 23.7871 25.0068 23.6206C25.1549 23.6482 25.2808 23.6062 25.3848 23.4946C25.2404 23.3411 25.1144 23.1731 25.0068 22.9907C24.8524 23.3077 24.6634 23.6016 24.4399 23.8726C24.3622 23.753 24.3831 23.6481 24.5029 23.5576C24.399 23.345 24.273 23.3239 24.125 23.4946C24.033 23.314 23.9071 23.1671 23.7471 23.0537C24.1869 22.6697 24.6908 22.4597 25.2588 22.4238C25.139 22.5143 25.1181 22.6192 25.1958 22.7388C25.3162 22.6028 25.4212 22.456 25.5107 22.2979C25.2569 21.9663 25.0049 21.9454 24.7549 22.2349C24.5532 22.1511 24.3642 22.109 24.188 22.1089C23.7545 22.7806 23.1876 22.9905 22.4873 22.7388C22.5912 22.6272 22.7172 22.5852 22.8652 22.6128C22.8922 22.4057 22.8501 22.2167 22.7393 22.0459C23.0606 21.8549 23.0187 21.75 22.6133 21.731C22.5917 21.3156 22.6756 21.2735 22.8652 21.605C22.9072 21.521 22.9493 21.4371 22.9912 21.353C23.0784 21.4192 23.1414 21.5032 23.1802 21.605C23.4532 21.416 23.4321 21.269 23.1172 21.1641C23.2983 21.1365 23.4663 21.0735 23.6211 20.9751C23.2553 20.8263 22.9403 20.9103 22.6763 21.2271C22.6552 21.1641 22.6343 21.1011 22.6133 21.0381C22.9086 20.74 22.8245 20.53 22.3613 20.4082C22.6048 20.3096 22.7938 20.3726 22.9282 20.5972C22.9702 20.4712 23.0122 20.3452 23.0542 20.2192C23.1366 20.3699 23.1996 20.3699 23.2432 20.2192C23.0679 19.9124 23.1309 19.8285 23.4321 19.9673C23.7051 19.7783 23.978 19.5894 24.251 19.4004C23.9903 19.3596 23.9484 19.2545 24.125 19.0854C23.999 18.9175 23.873 18.7495 23.7471 18.5815C23.8151 18.4243 23.8991 18.2773 23.999 18.1406C23.6106 18.0495 23.2327 17.8395 22.8652 17.5107C23.0376 17.3419 23.2055 17.1739 23.3691 17.0068C23.3509 16.9096 23.3089 16.8256 23.2432 16.7549C23.5319 16.5924 23.7839 16.3824 23.999 16.125C23.6809 16.0121 23.4079 16.0751 23.1802 16.314C23.1988 16.147 23.1779 16 23.1172 15.873C23.5119 15.7112 23.6169 15.4803 23.4321 15.1802C23.2221 15.4321 23.0122 15.6841 22.8022 15.936C22.6913 15.7126 22.5444 15.6287 22.3613 15.6841C22.4275 15.5969 22.5115 15.5339 22.6133 15.4951C22.5344 15.4006 22.4714 15.2956 22.4243 15.1802C22.3403 15.3481 22.2143 15.4741 22.0464 15.5581C21.8316 15.399 21.6216 15.3569 21.4165 15.4321C21.3408 15.2476 21.4038 15.1216 21.6055 15.0542C21.6926 15.1203 21.7556 15.2044 21.7944 15.3062C21.8785 15.0542 21.9624 14.8022 22.0464 14.5503C22.0883 14.5922 22.1304 14.6343 22.1724 14.6763C22.2961 14.5177 22.338 14.3497 22.2983 14.1724C22.1508 14.3478 21.9619 14.4529 21.7314 14.4873C21.7734 14.5293 21.8155 14.5713 21.8574 14.6133C21.4388 14.6651 21.4178 14.518 21.7944 14.1724C21.9096 14.3177 22.0145 14.2967 22.1094 14.1094C21.9377 13.8412 21.9797 13.7782 22.2354 13.9204C22.38 13.6782 22.443 13.4262 22.4243 13.1646C22.2983 13.2486 22.1724 13.3325 22.0464 13.4165C21.8117 13.857 21.4968 14.193 21.1016 14.4243C21.1203 14.2918 21.0994 14.1658 21.0386 14.0464C20.8189 14.1911 20.7978 14.3592 20.9756 14.5503C20.7835 14.5014 20.5735 14.5014 20.3457 14.5503C20.0765 14.9915 20.0556 15.4113 20.2827 15.8101C20.6137 15.9717 20.9286 16.1607 21.2275 16.377C20.9656 16.5836 20.6717 16.7304 20.3457 16.8179C20.2585 16.7517 20.1955 16.6677 20.1567 16.5659C20.124 16.8327 19.998 17.0426 19.7788 17.1958C19.7158 17.1328 19.6528 17.0698 19.5898 17.0068C19.7309 16.7146 19.9829 16.4416 20.3457 16.188C20.3069 16.0862 20.2439 16.0022 20.1567 15.936C20.016 15.9568 19.869 15.9988 19.7158 16.062C19.6174 15.9072 19.5544 15.7393 19.5269 15.5581C19.3989 15.701 19.3148 15.659 19.2749 15.4321C19.1018 15.7249 19.0599 16.0188 19.1489 16.314C19.0649 16.2299 18.981 16.146 18.897 16.062C18.7369 16.4315 18.5269 16.7674 18.2671 17.0698C18.0691 16.8067 17.8381 16.8067 17.5742 17.0698C17.3642 16.9019 17.1543 16.9019 16.9443 17.0698C16.9024 17.0488 16.8603 17.0279 16.8184 17.0068C17.1231 16.6886 17.0392 16.4576 16.5664 16.314C16.4511 16.4183 16.3672 16.5443 16.3145 16.6919C16.4374 16.8964 16.3744 17.0644 16.1255 17.1958C16.0478 17.0762 16.0687 16.9713 16.1885 16.8809C16.0867 16.8421 16.0027 16.7791 15.9365 16.6919C16.2201 16.3398 16.5561 16.0459 16.9443 15.8101C17.153 16.0018 17.3 15.9598 17.3853 15.6841C17.6322 15.9863 17.905 16.0072 18.2041 15.7471C17.9666 15.4084 17.9247 15.0514 18.0781 14.6763C17.8407 14.5885 17.7987 14.4625 17.9521 14.2983C17.7605 14.2505 17.5507 14.2296 17.3223 14.2354C17.5222 14.1268 17.7322 14.0427 17.9521 13.9834C18.0803 13.8512 18.1013 13.7042 18.0151 13.5425C17.8661 13.6976 17.7192 13.6976 17.5742 13.5425C17.7449 13.3945 17.7239 13.2685 17.5112 13.1646C17.2495 13.5241 16.9765 13.5662 16.6924 13.2905C16.3189 13.5611 15.9829 13.8761 15.6846 14.2354C15.873 14.2992 16.02 14.2362 16.1255 14.0464C16.2459 14.1823 16.3509 14.3292 16.4404 14.4873C16.2837 14.5448 16.1788 14.4818 16.1255 14.2983C15.897 14.4571 15.6661 14.4571 15.4326 14.2983C15.4927 14.1751 15.5766 14.0702 15.6846 13.9834C15.3486 13.8994 15.3486 13.8155 15.6846 13.7314C15.482 13.6486 15.335 13.7115 15.2437 13.9204C15.1609 13.414 15.3499 13.0361 15.8105 12.7866C15.4351 12.4687 15.3932 12.1328 15.6846 11.7788C15.5596 11.7972 15.4127 11.7552 15.2437 11.6528C15.0214 11.9851 14.8534 11.9431 14.7397 11.5269C14.6076 11.655 14.4606 11.676 14.2988 11.5898C14.5539 11.4394 14.596 11.2505 14.4248 11.0229C14.6173 10.8515 14.8273 10.7045 15.0547 10.582C14.9758 10.4875 14.9128 10.3825 14.8657 10.2671C14.6149 10.5137 14.363 10.7656 14.1099 11.0229C14.0321 10.9034 14.053 10.7984 14.1729 10.708C13.8027 10.2515 13.6558 10.3144 13.7319 10.897C13.904 11.1326 14.051 11.3845 14.1729 11.6528C14.0905 11.8563 14.0275 12.0663 13.9839 12.2827C13.9419 12.1567 13.8999 12.0308 13.8579 11.9048C13.4974 12.0123 13.2245 12.2852 13.0391 12.7236C13.0554 12.857 13.1184 12.962 13.228 13.0386C13.354 12.8706 13.48 12.8706 13.606 13.0386C13.69 13.2065 13.69 13.3746 13.606 13.5425C13.3706 13.3948 13.1396 13.4159 12.9131 13.6055C12.8137 13.9034 12.6667 14.1764 12.4722 14.4243C12.4443 13.9906 12.3183 13.9486 12.0942 14.2983C12.0645 14.0716 12.1275 13.8617 12.2832 13.6685C12.357 13.6948 12.42 13.7369 12.4722 13.7944C12.4904 13.3816 12.6164 13.0456 12.8501 12.7866C12.7979 12.729 12.735 12.687 12.6611 12.6606C12.5257 12.9632 12.3787 13.2573 12.2202 13.5425C12.0942 13.4585 11.9683 13.3746 11.8423 13.2905C11.6464 13.4979 11.4365 13.5398 11.2124 13.4165C11.1243 13.6095 10.9773 13.7355 10.7715 13.7944C10.625 13.5362 10.646 13.2842 10.8345 13.0386C10.9249 13.1584 11.0299 13.1793 11.1494 13.1016C11.044 12.9742 11.002 12.8272 11.0234 12.6606C11.2377 12.7193 11.4267 12.7193 11.5903 12.6606C11.5903 12.8286 11.5903 12.9966 11.5903 13.1646C11.8157 13.18 12.0467 13.18 12.2832 13.1646C12.2568 13.0907 12.2148 13.0277 12.1572 12.9756C12.4537 12.6783 12.7056 12.3424 12.9131 11.9678C12.504 12.0412 12.1471 12.2302 11.8423 12.5347C11.7793 12.5137 11.7163 12.4927 11.6533 12.4717C11.8346 12.3469 11.9606 12.1789 12.0312 11.9678C11.9118 11.907 11.7858 11.886 11.6533 11.9048C11.6747 11.7382 11.6327 11.5913 11.5273 11.4639C11.6113 11.4219 11.6953 11.3799 11.7793 11.3379C11.6533 11.1279 11.5273 10.918 11.4014 10.708C11.1409 10.6215 10.889 10.6425 10.6455 10.771C10.5082 10.6587 10.5082 10.5327 10.6455 10.3931C10.5825 10.3511 10.5195 10.3091 10.4565 10.2671C10.239 10.2855 10.218 10.3695 10.3936 10.519C10.1605 10.6125 10.0765 10.7385 10.1416 10.897C10.0416 10.8427 9.93666 10.8007 9.82666 10.771C9.58834 11.135 9.48336 11.093 9.51172 10.645C10.2192 10.6367 10.2822 10.4688 9.70068 10.1411C9.6587 10.2251 9.6167 10.3091 9.57471 10.3931C9.52197 10.2454 9.43798 10.1194 9.32275 10.0151C9.23877 10.3511 9.15479 10.687 9.0708 11.0229C9.03205 10.9211 8.96906 10.8372 8.88184 10.771C8.7037 10.9126 8.51474 11.0386 8.31494 11.1489C8.42604 10.8574 8.53103 10.5424 8.62988 10.2041C8.56603 9.90915 8.41906 9.84616 8.18896 10.0151C7.95499 9.65738 8.01798 9.34243 8.37793 9.07031C8.35693 9.00732 8.33594 8.94434 8.31494 8.88135C8.15149 9.04305 8.00451 9.02205 7.87402 8.81836C8.01689 8.69037 7.97491 8.60638 7.74805 8.56641C8.01983 8.42976 8.04083 8.28279 7.81104 8.12549C7.5083 8.48647 7.40332 8.46547 7.49609 8.0625C7.37667 8.00168 7.25069 7.98068 7.11816 7.99951C7.09127 8.2066 7.13326 8.39557 7.24414 8.56641C7.17529 8.68288 7.09131 8.78786 6.99219 8.88135C6.97088 8.7684 6.9289 8.64242 6.86621 8.50342C6.76357 8.72714 6.61659 8.81113 6.42529 8.75537C6.19527 9.4482 5.79635 10.0151 5.22852 10.4561C5.3125 10.54 5.39648 10.624 5.48047 10.708C5.2801 10.8398 5.09114 10.9867 4.91357 11.1489C4.83582 11.2685 4.85681 11.3735 4.97656 11.4639C4.51971 11.5874 4.18378 11.8603 3.96875 12.2827C3.81617 12.1852 3.81617 12.0802 3.96875 11.9678C3.84932 11.907 3.72335 11.886 3.59082 11.9048C3.60965 12.0373 3.58865 12.1633 3.52783 12.2827C3.15198 12.5608 3.13098 12.4978 3.46484 12.0938C3.31227 11.9535 3.31227 11.8065 3.46484 11.6528C3.71158 11.4956 3.90055 11.2856 4.03174 11.0229C4.22446 11.1661 4.39242 11.292 4.53564 11.4009C4.58279 11.2855 4.64577 11.1805 4.72461 11.0859C4.57695 11.0332 4.45098 10.9492 4.34668 10.834C4.57502 10.8398 4.78499 10.8188 4.97656 10.771C4.89257 10.687 4.8086 10.603 4.72461 10.519C4.88539 9.87191 4.80142 9.85093 4.47266 10.4561C3.94097 10.7789 3.54204 10.6739 3.27588 10.1411C3.10504 10.252 2.91608 10.294 2.70898 10.2671C2.74937 9.84126 2.6234 9.73629 2.33105 9.95215C2.60936 10.0727 2.58836 10.2197 2.26807 10.3931C2.19888 9.87437 1.98891 9.79038 1.63818 10.1411C1.64165 9.89957 1.74662 9.68961 1.95312 9.51123C1.91437 9.40943 1.85139 9.32545 1.76416 9.25928C1.54831 9.4329 1.38035 9.64285 1.26025 9.88916C1.02488 9.74153 0.793925 9.76252 0.567383 9.95215C0.762095 10.1335 0.867076 10.3645 0.882324 10.645C0.976862 10.7239 1.08184 10.7868 1.19727 10.834C0.962668 11.4255 0.542746 11.8244 -0.0625 12.0308C-0.0625 7.99951 -0.0625 3.96826 -0.0625 -0.0629883Z" fill="#FAFAFA"/>
<path fill-rule="evenodd" clip-rule="evenodd" d="M75.7748 31.9351C70.5283 30.7779 65.2372 30.505 59.9018 31.1163C59.8388 31.1792 59.7758 31.2422 59.7128 31.3052C59.609 31.7313 59.63 32.1513 59.7758 32.565C59.9737 32.6669 60.1837 32.709 60.4057 32.691C65.1394 32.6944 69.8426 33.1772 74.515 34.1397C75.4635 34.3579 76.3873 34.6518 77.2865 35.0215C77.4767 35.1917 77.6027 35.4017 77.6644 35.6514C77.5024 37.5566 77.4184 39.4671 77.4125 41.3833C69.5311 39.3526 61.5946 39.1216 53.6029 40.6905C52.6314 40.9438 51.6655 41.2168 50.7055 41.5093C50.4539 38.7857 50.3279 36.0562 50.3275 33.3208C52.2474 32.847 53.8641 31.8813 55.1776 30.4234C55.6247 29.7272 55.7926 28.9714 55.6815 28.1558C55.4031 27.8043 55.0461 27.6994 54.6107 27.8409C53.673 28.9054 52.6232 29.8291 51.4613 30.6123C50.2938 31.1627 49.076 31.5196 47.808 31.6831C47.627 31.8748 47.5429 32.1058 47.556 32.376C47.7281 32.8414 47.812 33.3244 47.808 33.8247C43.4537 33.5623 40.5773 31.3787 39.1786 27.274C38.4095 23.1225 39.7742 19.8681 43.2728 17.5108C46.2957 15.8049 49.403 15.6369 52.5951 17.0069C53.6771 17.5443 54.7269 18.1322 55.7445 18.7705C56.6921 18.7843 57.0071 18.3434 56.6893 17.4478C55.9369 16.4011 54.9921 15.5822 53.8549 14.9912C55.8464 11.9558 58.66 10.1921 62.2953 9.70023C68.3603 9.19411 72.6646 11.6927 75.2079 17.1958C75.5827 18.2785 75.9817 19.3493 76.4047 20.4082C77.0637 20.6254 77.5467 20.4365 77.8534 19.8413C77.9944 18.6398 77.8894 17.464 77.5385 16.314C81.2535 15.672 84.382 16.7218 86.9237 19.4634C90.0968 23.7752 89.7819 27.8275 85.9789 31.6202C85.3494 32.1032 84.6776 32.523 83.9633 32.8799C82.6668 33.3457 81.3441 33.7027 79.995 33.9507C79.6652 33.3692 79.1823 32.9702 78.5463 32.7539C77.6316 32.4414 76.7078 32.1684 75.7748 31.9351Z" fill="#FAFAFA"/>
<path fill-rule="evenodd" clip-rule="evenodd" d="M75.7752 31.935C75.7 32.0155 75.595 32.0575 75.4603 32.061C71.1554 31.2141 66.8092 30.8572 62.4217 30.9902C61.5668 31.0183 60.7269 31.1443 59.9021 31.3681C59.7405 31.7202 59.7405 32.0771 59.9021 32.4389C60.1802 32.4882 60.3481 32.5722 60.4061 32.6909C60.1841 32.7089 59.9741 32.6668 59.7762 32.5649C59.6304 32.1512 59.6094 31.7312 59.7132 31.3052C59.7762 31.2422 59.8392 31.1792 59.9021 31.1162C65.2376 30.5049 70.5286 30.7778 75.7752 31.935Z" fill="#136912"/>
<path fill-rule="evenodd" clip-rule="evenodd" d="M61.0352 49.5718C65.8148 49.3887 70.56 49.7037 75.2705 50.5166C76.425 50.709 77.5587 50.9818 78.6719 51.3354C77.958 52.1332 77.2021 52.8891 76.4043 53.603C74.2263 52.9545 72.0007 52.5555 69.7275 52.4062C64.6254 52.022 59.5442 52.1899 54.4844 52.9101C53.7325 53.0509 52.9976 53.2398 52.2798 53.477C51.5408 52.7803 50.8479 52.0453 50.2012 51.2724C51.5964 50.8086 53.0241 50.4726 54.4844 50.2646C56.6791 49.9581 58.8627 49.7271 61.0352 49.5718Z" fill="#0F781C"/>
<path fill-rule="evenodd" clip-rule="evenodd" d="M36.7218 36.8481C36.9771 36.8277 37.2291 36.8487 37.4776 36.9111C40.606 39.7875 43.7345 42.6641 46.8629 45.5405C48.1393 47.1336 48.5593 48.9392 48.1226 50.9575C52.7071 55.6636 57.4521 60.1988 62.358 64.563C62.489 65.071 62.4051 65.5329 62.106 65.9487C61.4593 66.4694 60.8503 67.0363 60.2794 67.6494C59.8595 67.9013 59.4395 67.9013 59.0196 67.6494C54.7364 63.1142 50.4532 58.5791 46.17 54.0439C45.1603 53.5937 44.1105 53.4887 43.0206 53.729C41.9902 53.5706 41.0664 53.1717 40.2491 52.5322C37.2385 49.5219 34.32 46.4354 31.4937 43.2729C31.0521 42.203 31.4091 41.6782 32.5645 41.6982C35.0382 43.9618 37.4737 46.2713 39.8712 48.6269C40.2767 48.8845 40.6336 48.8216 40.942 48.438C41.0349 48.0963 40.9509 47.8024 40.69 47.5561C38.3805 45.1626 36.0708 42.769 33.7613 40.3755C33.6769 39.4104 34.1178 39.0115 35.0841 39.1787C37.4878 41.5824 39.8814 43.976 42.2647 46.3593C43.0043 46.541 43.3612 46.268 43.3355 45.5405C41.013 43.0389 38.6616 40.5613 36.2808 38.1079C36.0312 37.5562 36.178 37.1363 36.7218 36.8481Z" fill="#0D781B"/>
<path fill-rule="evenodd" clip-rule="evenodd" d="M92.1523 37.2261C95.5077 37.0751 97.0405 38.6708 96.7505 42.0132C95.6003 46.6054 92.9759 50.0698 88.877 52.4063C88.3033 52.6256 87.7153 52.7935 87.1133 52.9102C85.9668 52.9171 84.833 53.0011 83.7119 53.1621C78.7842 58.0893 73.9552 63.0864 69.2246 68.1534C68.7357 68.3033 68.2318 68.3873 67.7129 68.4053C65.8652 68.4893 64.0176 68.4893 62.1699 68.4053C68.8047 62.6952 75.2086 56.7113 81.3813 50.4536C80.969 47.1975 81.8928 44.3841 84.1528 42.0132C86.3539 39.6222 89.0203 38.0264 92.1523 37.2261Z" fill="#0C781C"/>
<path fill-rule="evenodd" clip-rule="evenodd" d="M84.8451 54.3589C85.5184 54.338 86.1902 54.359 86.8608 54.4219C89.2082 55.3835 90.9508 57.0001 92.0888 59.272C92.6165 60.9602 92.4065 62.5559 91.4589 64.0591C90.4609 65.4772 89.2222 66.6319 87.7426 67.5234C86.7348 68.0274 85.727 68.5313 84.7192 69.0352C83.5515 70.4969 82.1238 71.6307 80.436 72.4365C76.3332 74.2123 72.05 75.2621 67.5864 75.5859C61.6518 76.0698 55.8569 75.3979 50.2016 73.5703C47.4079 72.6628 45.0563 71.1091 43.1469 68.9092C40.4033 67.9067 38.1566 66.2479 36.4071 63.9331C35.2105 61.727 35.3784 59.6274 36.9111 57.6343C38.0486 56.3062 39.4133 55.2984 41.0053 54.6108C42.0698 54.9293 43.1616 55.0762 44.2807 55.0518C44.4067 55.0937 44.5326 55.1358 44.6586 55.1777C43.1056 55.996 41.5939 56.8778 40.1235 57.8233C37.8809 59.602 37.65 61.5968 39.4306 63.8071C41.376 65.3787 43.5387 66.5755 45.9184 67.3975C52.6285 69.3157 59.4733 70.1135 66.4526 69.791C72.5055 69.6856 78.3843 68.6358 84.0893 66.6416C86.3842 65.8221 88.2109 64.4155 89.5693 62.4214C89.9792 61.5375 89.9792 60.6557 89.5693 59.7759C89.0468 59.0019 88.438 58.309 87.7426 57.6973C86.3725 56.7812 84.9447 55.9623 83.4594 55.2407C83.8281 54.7843 84.2901 54.4904 84.8451 54.3589Z" fill="#0D781C"/>
<path fill-rule="evenodd" clip-rule="evenodd" d="M77.2865 77.9165C79.0851 77.6793 80.0929 78.4561 80.31 80.2471C79.9588 81.8937 78.9509 82.5236 77.2865 82.1367C76.0797 81.6294 75.6388 80.7267 75.9638 79.4282C76.125 78.6593 76.566 78.1553 77.2865 77.9165Z" fill="#0E771B"/>
<path fill-rule="evenodd" clip-rule="evenodd" d="M95.5532 78.2945C96.6283 78.1272 97.4891 78.463 98.1357 79.3023C98.6015 81.4483 97.9925 83.233 96.3091 84.6563C95.7412 85.1903 95.1743 85.2112 94.6084 84.7193C94.5244 84.4673 94.5244 84.2154 94.6084 83.9634C95.2278 83.5658 95.6687 83.02 95.9312 82.3257C95.8262 82.1157 95.7212 81.9058 95.6162 81.6958C94.3292 81.0677 94.0773 80.1439 94.8604 78.9243C95.0783 78.6847 95.3092 78.4747 95.5532 78.2945Z" fill="#0E761B"/>
<path fill-rule="evenodd" clip-rule="evenodd" d="M85.0969 95.5532C83.2462 94.3321 82.3224 92.5265 82.3254 90.1362C82.2618 88.8787 82.5348 87.7028 83.1443 86.6089C83.6066 86.0417 84.0895 85.4959 84.593 84.9712C86.6458 83.2864 88.8714 83.0554 91.2698 84.2783C93.3276 85.7906 93.9994 87.7643 93.2854 90.1992C90.8082 90.2622 88.3306 90.2832 85.8528 90.2622C86.0983 92.9246 87.526 94.0373 90.136 93.6006C90.995 93.234 91.8348 92.835 92.6555 92.4038C93.462 92.7217 93.609 93.2256 93.0964 93.9155C90.8076 96.3937 88.1411 96.9396 85.0969 95.5532Z" fill="#0D781B"/>
<path fill-rule="evenodd" clip-rule="evenodd" d="M20.3451 94.5454C20.3951 94.6746 20.479 94.6956 20.597 94.6084C21.1052 94.2606 21.3782 93.7777 21.4159 93.1597C21.4999 89.1704 21.4999 85.1812 21.4159 81.1919C21.3676 81.1219 21.3046 81.0799 21.2269 81.0659C20.9626 80.7313 20.6477 80.4374 20.2821 80.1841C20.261 79.9951 20.2401 79.8062 20.2191 79.6172C20.2353 79.3676 20.3194 79.1578 20.471 78.9873C22.3607 78.9033 24.2503 78.9033 26.14 78.9873C26.4538 79.3612 26.4747 79.7602 26.203 80.1841C25.7831 80.4361 25.4471 80.772 25.1952 81.1919C25.1322 82.8711 25.1111 84.5508 25.1322 86.231C27.2694 86.3517 29.411 86.3936 31.557 86.357C31.4688 84.595 31.4058 82.8314 31.368 81.0659C30.9926 80.732 30.6566 80.354 30.3602 79.9321C30.2706 79.6299 30.2917 79.336 30.4232 79.0503C32.3955 78.9034 34.3692 78.8824 36.3441 78.9873C36.8072 79.7889 36.6182 80.3978 35.7772 80.814C35.6686 81.0139 35.5846 81.2239 35.5252 81.4439C35.4412 85.3911 35.4412 89.3384 35.5252 93.2857C35.617 93.9236 35.9529 94.3854 36.5331 94.6714C36.6171 95.0493 36.6171 95.4273 36.5331 95.8052C34.5174 95.9731 32.5018 95.9731 30.4862 95.8052C30.4022 95.4273 30.4022 95.0493 30.4862 94.6714C30.9404 94.5109 31.2764 94.217 31.494 93.7896C31.557 92.0683 31.578 90.3468 31.557 88.6245C29.3742 88.5469 27.1906 88.505 25.0062 88.4986C24.9695 90.2663 25.0325 92.0299 25.1952 93.7896C25.4127 94.217 25.7487 94.5109 26.203 94.6714C26.287 95.0493 26.287 95.4273 26.203 95.8052C24.2597 95.9509 22.307 95.972 20.3451 95.8682C20.0926 95.5103 20.0296 95.1114 20.1561 94.6714C20.2043 94.6014 20.2673 94.5594 20.3451 94.5454Z" fill="#0D781C"/>
<path fill-rule="evenodd" clip-rule="evenodd" d="M87.4907 85.4751C88.3795 85.3001 89.1143 85.5521 89.6953 86.231C90.0185 86.9101 90.2074 87.624 90.2622 88.3726C88.7927 88.5358 87.3229 88.5358 85.853 88.3726C85.85 87.0749 86.3959 86.1092 87.4907 85.4751Z" fill="#FAFAFA"/>
<path fill-rule="evenodd" clip-rule="evenodd" d="M68.5938 88.1206C68.4475 89.9465 68.4265 91.7942 68.5308 93.6636C68.7727 94.1997 69.1506 94.6196 69.6646 94.9233C69.7486 95.1753 69.7486 95.4272 69.6646 95.6792C67.7637 95.804 65.8532 95.846 63.9326 95.8052C63.7652 95.1039 63.9961 94.6 64.6255 94.2935C64.9248 93.886 64.9878 93.4662 64.8145 93.0337C64.8355 91.0596 64.8145 89.086 64.7515 87.1128C64.5415 86.5669 64.1636 86.189 63.6177 85.979C63.5337 85.643 63.5337 85.3072 63.6177 84.9712C63.7652 84.7957 63.9542 84.6906 64.1846 84.6562C65.3617 84.4178 66.5166 84.1028 67.649 83.7114C67.8986 83.7732 68.1086 83.8991 68.2788 84.0894C68.4182 84.7531 68.5022 85.4251 68.5308 86.105C69.4518 84.1642 70.9425 83.4292 73.003 83.9004C74.0754 84.6828 74.3903 85.7117 73.9478 86.9868C73.4154 88.0614 72.5546 88.4604 71.3653 88.1836C71.2603 88.0787 71.1553 87.9736 71.0503 87.8687C71.0333 86.669 70.5085 86.312 69.4756 86.7979C69.0677 87.1755 68.7738 87.6164 68.5938 88.1206Z" fill="#0D781C"/>
<path fill-rule="evenodd" clip-rule="evenodd" d="M84.5933 84.9712C84.0897 85.4959 83.6069 86.0417 83.1445 86.6089C82.5351 87.7029 82.2621 88.8787 82.3257 90.1362C82.3227 92.5265 83.2465 94.3321 85.0972 95.5532C84.2791 95.219 83.6283 94.6732 83.1445 93.9155C81.6773 91.2787 81.7192 88.6753 83.2705 86.105C83.6608 85.6506 84.1017 85.2727 84.5933 84.9712Z" fill="#206D1E"/>
<path fill-rule="evenodd" clip-rule="evenodd" d="M80.0581 93.6636C80.0663 93.7188 80.0454 93.7608 79.9951 93.7896C79.9532 93.7055 79.9111 93.6216 79.8691 93.5376C79.8272 90.3882 79.7851 87.2388 79.7432 84.0894C79.4407 83.9505 79.1258 83.9295 78.7983 84.0264C78.0109 84.4022 77.2131 84.5911 76.4048 84.5933C77.3606 84.3377 78.3054 84.0438 79.2393 83.7114C79.6012 83.7238 79.8531 83.8918 79.9951 84.2153C80.0581 87.3645 80.0791 90.5139 80.0581 93.6636Z" fill="#297224"/>
<path fill-rule="evenodd" clip-rule="evenodd" d="M98.8286 85.7271C98.7016 86.6054 98.6806 87.4872 98.7656 88.3726C99.042 89.0748 99.4829 89.6416 100.088 90.0732C101.379 90.6856 102.681 91.2734 103.994 91.8369C104.411 92.0234 104.663 92.3383 104.749 92.7817C104.522 92.4493 104.228 92.1763 103.868 91.9629C102.551 91.4096 101.249 90.8217 99.9624 90.1992C98.4339 88.995 98.056 87.5043 98.8286 85.7271Z" fill="#166A17"/>
<path fill-rule="evenodd" clip-rule="evenodd" d="M104.75 92.7817C104.664 92.3383 104.412 92.0233 103.994 91.8369C102.681 91.2734 101.38 90.6856 100.089 90.0732C99.4831 89.6416 99.0422 89.0747 98.7658 88.3725C98.6807 87.4872 98.7018 86.6053 98.8288 85.727C99.0432 85.155 99.4211 84.7141 99.9625 84.4043C101.962 83.4524 104.019 83.3264 106.135 84.0264C107.118 84.6149 107.58 85.4968 107.521 86.6719C107.553 87.7749 107.049 88.1528 106.009 87.8057C105.554 87.0645 105.008 86.3926 104.372 85.79C103.712 85.3786 102.998 85.2526 102.23 85.4121C101.278 86.0199 101.236 86.6919 102.104 87.4277C103.485 88.0566 104.871 88.6865 106.261 89.3174C107.71 90.2561 108.235 91.5789 107.836 93.2856C107.196 94.9398 106 95.9266 104.246 96.2461C102.338 96.5798 100.533 96.2859 98.8288 95.3642C97.8227 94.1934 97.8227 93.0177 98.8288 91.8369C99.0637 91.673 99.3157 91.6309 99.5846 91.7109C100.13 92.4248 100.676 93.1386 101.222 93.8525C102.097 94.5405 103.063 94.7085 104.12 94.3564C104.685 93.9813 104.895 93.4563 104.75 92.7817Z" fill="#0D771C"/>
<path fill-rule="evenodd" clip-rule="evenodd" d="M80.0581 93.6636C80.3432 94.0959 80.7001 94.4739 81.1289 94.7974C81.1897 94.9168 81.2107 95.0428 81.1919 95.1753C81.1013 95.3757 80.9753 95.5647 80.814 95.7422C79.0198 95.8459 77.2352 95.8248 75.46 95.6792C75.2647 94.8663 75.5796 94.3833 76.4048 94.2305C76.2818 93.96 76.3029 93.687 76.4678 93.4116C76.5518 91.2281 76.5518 89.0444 76.4678 86.8608C76.415 86.7132 76.3311 86.5872 76.2158 86.4829C76.1655 86.5116 76.1446 86.5537 76.1528 86.6089C75.3129 86.255 75.1031 85.6881 75.5229 84.9082C75.8055 84.7651 76.0994 84.66 76.4048 84.5933C77.213 84.5911 78.0109 84.4022 78.7983 84.0264C79.1257 83.9295 79.4407 83.9505 79.7432 84.0894C79.7851 87.2388 79.8272 90.3882 79.8691 93.5376C79.9111 93.6216 79.9532 93.7055 79.9951 93.7896C80.0454 93.7608 80.0663 93.7188 80.0581 93.6636Z" fill="#0C791C"/>
<path fill-rule="evenodd" clip-rule="evenodd" d="M42.517 83.5855C44.332 83.3466 46.0116 83.7035 47.5561 84.6563C48.5699 85.487 49.1368 86.5578 49.2568 87.8687C49.268 89.7266 49.3939 91.5742 49.6347 93.4117C49.6933 93.5919 49.7983 93.7388 49.9496 93.8526C51.1455 93.79 51.4605 94.273 50.8945 95.3013C49.8696 96.2765 48.6729 96.5494 47.3041 96.1202C46.6739 95.7673 46.2329 95.2424 45.9814 94.5455C44.2225 96.3502 42.1859 96.749 39.8715 95.7422C38.2945 94.4062 37.9376 92.7896 38.8007 90.8921C40.0596 89.1422 41.7603 88.4493 43.9028 88.8135C44.52 88.8443 45.1078 88.9913 45.6664 89.2544C45.8342 88.203 45.6872 87.1952 45.2255 86.231C45.0074 85.9643 44.7345 85.7753 44.4067 85.6641C43.3992 85.4065 42.5383 85.6374 41.8241 86.357C41.6041 86.9896 41.2472 87.5145 40.7533 87.9317C39.5476 88.0698 39.0228 87.5449 39.1786 86.357C39.3709 85.4925 39.8537 84.8417 40.6274 84.4043C41.2405 84.0549 41.8704 83.7819 42.517 83.5855Z" fill="#0D771B"/>
<path fill-rule="evenodd" clip-rule="evenodd" d="M43.273 90.5142C44.1717 90.4294 45.0326 90.5554 45.8555 90.8921C46.2894 92.4815 45.7225 93.5103 44.1548 93.9785C42.2494 94.089 41.5566 93.2282 42.0762 91.396C42.3948 90.9696 42.7938 90.6757 43.273 90.5142Z" fill="#FAFAFA"/>
<path fill-rule="evenodd" clip-rule="evenodd" d="M55.9964 83.7114C56.3213 83.7558 56.5523 83.9238 56.6893 84.2153C56.7938 84.8002 56.8779 85.3882 56.9412 85.979C57.8384 84.113 59.2872 83.4202 61.2874 83.9004C62.2891 84.6365 62.646 85.6234 62.3582 86.8608C61.8968 88.0387 61.0359 88.4796 59.7757 88.1836C59.3595 87.8972 59.1705 87.4984 59.2088 86.9868C59.0408 86.5328 58.7258 86.3858 58.264 86.5459C57.6863 86.8724 57.2874 87.3554 57.0672 87.9946C56.9832 89.8003 56.9832 91.606 57.0672 93.4116C57.2587 94.0232 57.6366 94.4852 58.201 94.7974C58.2927 95.1413 58.2718 95.4773 58.138 95.8052C56.2064 95.9731 54.2747 95.9731 52.3431 95.8052C52.0387 95.0738 52.2277 94.5279 52.91 94.1675C52.994 93.9996 53.0779 93.8315 53.1619 93.6636C53.3446 91.6089 53.3866 89.5513 53.2879 87.4907C53.1851 86.8004 52.8072 86.3385 52.1541 86.105C51.7849 85.436 51.9319 84.9531 52.595 84.6562C53.7617 84.3965 54.8955 84.0815 55.9964 83.7114Z" fill="#0D771B"/>
<path fill-rule="evenodd" clip-rule="evenodd" d="M21.2275 81.0659C21.3053 81.0799 21.3683 81.1219 21.4165 81.1919C21.5005 85.1812 21.5005 89.1704 21.4165 93.1597C21.3788 93.7777 21.1058 94.2606 20.5977 94.6084C20.4796 94.6956 20.3957 94.6745 20.3457 94.5454C20.7346 94.3034 21.0076 93.9676 21.1646 93.5376C21.287 89.3753 21.308 85.2181 21.2275 81.0659Z" fill="#237121"/>
<path fill-rule="evenodd" clip-rule="evenodd" d="M81.1921 95.1753C81.2327 95.4552 81.1486 95.6863 80.9401 95.8682C79.0924 95.9522 77.2449 95.9522 75.3972 95.8682C75.1523 95.5969 75.0893 95.282 75.2082 94.9233C75.4553 94.5501 75.7492 94.2142 76.09 93.9155C76.1986 93.7156 76.2827 93.5056 76.342 93.2856C76.426 91.186 76.426 89.0865 76.342 86.9868C76.2774 86.8574 76.2144 86.7315 76.153 86.6089C76.1448 86.5537 76.1658 86.5116 76.216 86.4829C76.3313 86.5872 76.4152 86.7132 76.468 86.8608C76.552 89.0444 76.552 91.2281 76.468 93.4116C76.3031 93.687 76.282 93.96 76.405 94.2305C75.5798 94.3833 75.2649 94.8663 75.4602 95.6792C77.2354 95.8248 79.02 95.8459 80.8142 95.7422C80.9755 95.5647 81.1015 95.3757 81.1921 95.1753Z" fill="#116110"/>
<path fill-rule="evenodd" clip-rule="evenodd" d="M68.5939 88.1206C68.5728 89.8848 68.5939 91.6485 68.6568 93.4116C68.6988 93.5795 68.7409 93.7476 68.7828 93.9155C69.0951 94.2392 69.4311 94.5331 69.7906 94.7974C70.0431 95.1846 70.022 95.5415 69.7276 95.8682C67.7545 95.9312 65.7808 95.9522 63.8067 95.9312C63.5117 95.1357 63.7426 94.5478 64.4996 94.1675C64.6948 93.8132 64.7997 93.4353 64.8146 93.0337C64.9879 93.4662 64.9249 93.886 64.6256 94.2935C63.9962 94.6 63.7653 95.1039 63.9327 95.8052C65.8532 95.846 67.7638 95.804 69.6647 95.6792C69.7487 95.4272 69.7487 95.1753 69.6647 94.9233C69.1507 94.6196 68.7727 94.1997 68.5309 93.6636C68.4266 91.7942 68.4476 89.9465 68.5939 88.1206Z" fill="#0D600C"/>
<path fill-rule="evenodd" clip-rule="evenodd" d="M43.6514 101.852C46.1915 101.957 48.7529 102.02 51.336 102.041C48.6183 102.145 45.9098 102.124 43.2105 101.978C42.8392 102.617 42.8183 103.268 43.1475 103.931C44.2495 103.95 45.2573 104.013 46.1709 104.12C45.1203 104.141 44.0705 104.12 43.0215 104.057C42.6855 103.343 42.6855 102.629 43.0215 101.915C43.2274 101.853 43.4374 101.832 43.6514 101.852Z" fill="#016403"/>
<path fill-rule="evenodd" clip-rule="evenodd" d="M89.6326 108.403C89.4831 107.969 89.399 107.507 89.3806 107.017C87.914 106.923 86.4444 106.86 84.9715 106.828C84.806 105.891 84.806 104.946 84.9715 103.994C86.6454 103.891 88.3252 103.828 90.0105 103.805C90.1323 103.25 90.1743 102.683 90.1365 102.104C87.6589 102.104 85.1815 102.104 82.7039 102.104C82.748 105.843 82.7059 108.909 82.5779 111.3C82.6139 108.422 82.572 105.545 82.4519 102.671C82.4274 102.375 82.5114 102.123 82.7039 101.915C85.1394 101.831 87.575 101.831 90.0105 101.915C90.4863 102.628 90.4863 103.342 90.0105 104.057C88.3733 104.12 86.7356 104.141 85.0974 104.12C85.0974 105.001 85.0974 105.883 85.0974 106.765C86.4838 106.744 87.8695 106.765 89.2547 106.828C89.4246 106.925 89.5295 107.072 89.5696 107.269C89.6323 107.645 89.6534 108.023 89.6326 108.403Z" fill="#0F6B12"/>
<path fill-rule="evenodd" clip-rule="evenodd" d="M37.352 113.568C37.2054 109.726 37.1843 105.863 37.289 101.978C38.0134 101.834 38.7483 101.813 39.4936 101.915C39.609 101.962 39.7141 102.025 39.8085 102.104C39.8926 105.883 39.8926 109.663 39.8085 113.442C39.7456 113.589 39.6406 113.694 39.4936 113.757C38.8218 113.841 38.1498 113.841 37.478 113.757C37.4079 113.709 37.366 113.646 37.352 113.568Z" fill="#256F21"/>
<path fill-rule="evenodd" clip-rule="evenodd" d="M89.6323 108.403C89.6579 108.641 89.574 108.83 89.3803 108.97C87.9533 109.033 86.5255 109.054 85.0971 109.033C85.0971 109.831 85.0971 110.628 85.0971 111.426C86.7991 111.385 88.4789 111.427 90.1362 111.552C83.418 111.573 83.418 111.636 90.1362 111.741C90.3041 112.329 90.3041 112.917 90.1362 113.505C87.7007 113.589 85.2651 113.589 82.8296 113.505C82.7343 113.331 82.6504 113.31 82.5776 113.442C82.4097 112.728 82.4097 112.014 82.5776 111.3C82.7056 108.909 82.7477 105.843 82.7036 102.104C85.1812 102.104 87.6586 102.104 90.1362 102.104C90.174 102.683 90.132 103.25 90.0102 103.805C88.3249 103.828 86.6451 103.891 84.9712 103.994C84.8058 104.946 84.8058 105.891 84.9712 106.828C86.4441 106.86 87.9137 106.923 89.3803 107.017C89.3987 107.507 89.4828 107.969 89.6323 108.403Z" fill="#0F791D"/>
<path fill-rule="evenodd" clip-rule="evenodd" d="M25.1329 101.852C25.6386 101.831 26.1425 101.852 26.6446 101.915C26.8028 101.968 26.8869 102.073 26.8966 102.23C26.8547 103.66 26.8967 105.088 27.0225 106.513C27.099 106.498 27.141 106.456 27.1485 106.387C28.4759 104.997 29.7357 103.548 30.9278 102.041C31.4383 101.902 31.9632 101.839 32.5025 101.852C32.9749 101.854 33.4369 101.896 33.8883 101.978C33.9723 102.188 33.9723 102.398 33.8883 102.608C32.4962 104.153 31.0894 105.685 29.668 107.206C31.2132 109.003 32.6619 110.871 34.0142 112.812C34.0983 113.064 34.0983 113.316 34.0142 113.568C33.2057 113.712 32.3869 113.733 31.5577 113.631C30.9327 112.945 30.3869 112.21 29.92 111.426C29.4286 110.656 28.9037 109.9 28.3453 109.159C28.1999 109.002 28.0319 108.876 27.8414 108.781C27.5054 109.117 27.1696 109.453 26.8336 109.789C26.7916 111.006 26.7495 112.224 26.7076 113.442C26.0068 113.719 25.2929 113.719 24.566 113.442C24.503 109.663 24.482 105.884 24.503 102.104C24.7616 102.116 24.9716 102.032 25.1329 101.852Z" fill="#0C781B"/>
<path fill-rule="evenodd" clip-rule="evenodd" d="M26.8965 102.23C26.9805 103.616 27.0644 105.001 27.1485 106.387C27.1409 106.456 27.099 106.498 27.0225 106.513C26.8966 105.088 26.8547 103.66 26.8965 102.23Z" fill="#9BC29D"/>
<path fill-rule="evenodd" clip-rule="evenodd" d="M48.8165 104.12C48.8375 107.269 48.8165 110.419 48.7535 113.568C48.6905 113.631 48.6275 113.694 48.5645 113.757C48.2496 113.778 47.9346 113.799 47.6197 113.82C47.1701 113.847 46.7502 113.763 46.3599 113.568C46.297 110.461 46.2759 107.353 46.297 104.246C46.3965 104.385 46.4595 104.553 46.4859 104.75C46.5373 107.606 46.5373 110.461 46.4859 113.316C46.8077 113.476 47.1646 113.56 47.5567 113.568C47.9247 113.565 48.2816 113.523 48.6275 113.442C48.6487 110.313 48.7117 107.206 48.8165 104.12Z" fill="#09690D"/>
<path fill-rule="evenodd" clip-rule="evenodd" d="M96.5611 106.261C96.4563 108.633 96.3933 111.027 96.3721 113.442C95.6489 113.565 94.9139 113.607 94.1675 113.568C94.0708 113.472 94.0078 113.346 93.9785 113.19C93.8945 109.579 93.8945 105.967 93.9785 102.356C94.0415 102.125 94.1886 101.978 94.4195 101.915C95.0913 101.831 95.7633 101.831 96.4351 101.915C96.666 102.146 96.897 102.377 97.128 102.608C98.6926 104.939 100.288 107.249 101.915 109.537C101.957 107.017 101.999 104.498 102.041 101.978C102.723 101.835 103.416 101.814 104.12 101.915C104.221 101.954 104.305 102.017 104.372 102.104C104.517 105.878 104.539 109.657 104.435 113.442C104.33 113.547 104.225 113.652 104.12 113.757C103.35 113.871 102.594 113.829 101.852 113.631C100.43 111.605 99.023 109.569 97.6319 107.521C97.292 107.077 96.9351 106.657 96.5611 106.261Z" fill="#0F771B"/>
<path fill-rule="evenodd" clip-rule="evenodd" d="M68.5942 101.978C68.5732 105.8 68.5942 109.621 68.6572 113.442C69.2132 113.543 69.7801 113.606 70.3579 113.631C69.8135 113.694 69.2677 113.715 68.7202 113.694C68.6424 113.68 68.5795 113.638 68.5312 113.568C68.4265 109.683 68.4476 105.82 68.5942 101.978Z" fill="#015C01"/>
<path fill-rule="evenodd" clip-rule="evenodd" d="M37.3516 113.568C37.3516 109.747 37.3516 105.925 37.3516 102.104C38.1074 102.104 38.8633 102.104 39.6191 102.104C39.6191 105.925 39.6191 109.747 39.6191 113.568C38.8633 113.568 38.1074 113.568 37.3516 113.568Z" fill="#0C791C"/>
<path fill-rule="evenodd" clip-rule="evenodd" d="M73.3819 106.513C74.2824 106.638 75.2062 106.68 76.1534 106.639C76.1534 105.673 76.1534 104.708 76.1534 103.742C76.1325 103.194 76.1535 102.648 76.2164 102.104C76.2794 102.041 76.3424 101.978 76.4054 101.915C77.0772 101.831 77.7491 101.831 78.421 101.915C78.484 101.978 78.547 102.041 78.6099 102.104C78.694 105.883 78.694 109.663 78.6099 113.442C78.547 113.589 78.442 113.694 78.295 113.757C77.5915 113.858 76.8987 113.837 76.2164 113.694C76.1854 112.095 76.1224 110.499 76.0274 108.907C74.3897 108.907 72.752 108.907 71.1143 108.907C71.1354 110.419 71.1143 111.931 71.0513 113.442C70.9541 113.612 70.8071 113.717 70.6104 113.757C69.9574 113.86 69.3275 113.839 68.7208 113.694C69.2683 113.715 69.8141 113.694 70.3585 113.631C69.7807 113.606 69.2139 113.543 68.6578 113.442C68.5948 109.621 68.5738 105.8 68.5948 101.978C69.3279 101.833 70.0837 101.812 70.8624 101.915C70.9254 101.978 70.9884 102.041 71.0513 102.104C71.1143 103.573 71.1354 105.043 71.1143 106.513C71.8702 106.513 72.6261 106.513 73.3819 106.513Z" fill="#0D781B"/>
<path fill-rule="evenodd" clip-rule="evenodd" d="M76.1528 103.742C76.1528 104.708 76.1528 105.673 76.1528 106.639C75.2056 106.68 74.2818 106.638 73.3813 106.513C74.2632 106.513 75.145 106.513 76.0269 106.513C75.9859 105.566 76.0279 104.642 76.1528 103.742Z" fill="#9EC29E"/>
<path fill-rule="evenodd" clip-rule="evenodd" d="M25.1328 101.852C24.9716 102.032 24.7616 102.116 24.503 102.104C24.4819 105.884 24.503 109.663 24.5659 113.442C25.2928 113.719 26.0067 113.719 26.7076 113.442C26.7495 112.224 26.7916 111.006 26.8335 109.789C27.1695 109.453 27.5054 109.117 27.8413 108.781C28.0318 108.876 28.1999 109.002 28.3452 109.159C28.9037 109.9 29.4285 110.656 29.92 111.426C29.251 110.631 28.5791 109.833 27.9043 109.033C27.5704 109.304 27.2554 109.597 26.9595 109.915C26.9176 111.132 26.8755 112.35 26.8335 113.568C26.4433 113.763 26.0234 113.847 25.5738 113.82C25.2588 113.799 24.9439 113.778 24.6289 113.757C24.5659 113.694 24.503 113.631 24.44 113.568C24.3559 109.705 24.3559 105.841 24.44 101.978C24.654 101.864 24.885 101.822 25.1328 101.852Z" fill="#0B630C"/>
<path fill-rule="evenodd" clip-rule="evenodd" d="M43.6511 101.852C46.4657 101.81 49.2793 101.852 52.0915 101.978C52.2571 102.675 52.2571 103.368 52.0915 104.057C51.0005 104.12 49.9087 104.141 48.8161 104.12C48.7113 107.206 48.6483 110.313 48.6271 113.442C48.2812 113.523 47.9243 113.565 47.5563 113.568C47.1642 113.56 46.8073 113.476 46.4855 113.316C46.5369 110.461 46.5369 107.606 46.4855 104.75C46.4591 104.553 46.3961 104.385 46.2966 104.246C46.2125 104.246 46.1706 104.204 46.1706 104.12C45.257 104.013 44.2492 103.95 43.1471 103.931C42.818 103.268 42.8389 102.617 43.2101 101.978C45.9094 102.124 48.6179 102.145 51.3356 102.041C48.7526 102.02 46.1911 101.957 43.6511 101.852Z" fill="#0C781B"/>
<path fill-rule="evenodd" clip-rule="evenodd" d="M90.1362 111.552C90.2987 111.623 90.4037 111.749 90.4512 111.93C90.5389 112.485 90.4969 113.031 90.3252 113.568C90.1908 113.655 90.0438 113.718 89.8843 113.757C87.5747 113.841 85.2651 113.841 82.9556 113.757C82.7739 113.709 82.6479 113.604 82.5776 113.442C82.6505 113.31 82.7344 113.331 82.8296 113.505C85.2651 113.589 87.7007 113.589 90.1362 113.505C90.3042 112.917 90.3042 112.329 90.1362 111.741C83.418 111.636 83.418 111.573 90.1362 111.552Z" fill="#1F6F1F"/>
<path fill-rule="evenodd" clip-rule="evenodd" d="M58.7678 101.6C61.0389 101.3 62.9496 101.972 64.4998 103.616C64.7974 104.043 65.0284 104.505 65.1926 105.001C65.179 105.12 65.1371 105.225 65.0667 105.316C64.4773 105.601 63.8685 105.832 63.24 106.009C62.7874 105.426 62.2625 104.901 61.6653 104.435C59.4758 103.546 57.8592 104.155 56.8152 106.261C56.2067 108.305 56.7317 109.964 58.3899 111.237C59.7416 111.763 61.0014 111.595 62.1692 110.733C62.4463 110.452 62.6773 110.137 62.8621 109.789C62.9988 109.689 63.1458 109.605 63.303 109.537C63.9792 109.832 64.6511 110.126 65.3186 110.418C64.511 112.484 62.9993 113.68 60.7835 114.009C55.8069 113.986 53.5602 111.488 54.0437 106.513C54.5816 103.855 56.1563 102.217 58.7678 101.6Z" fill="#0D771B"/>
<path fill-rule="evenodd" clip-rule="evenodd" d="M96.561 106.261C96.5821 108.697 96.561 111.133 96.498 113.568C96.4351 113.631 96.3721 113.694 96.3091 113.757C95.6372 113.841 94.9653 113.841 94.2935 113.757C94.2234 113.709 94.1815 113.646 94.1675 113.568C94.9139 113.607 95.6488 113.565 96.3721 113.442C96.3932 111.027 96.4562 108.633 96.561 106.261Z" fill="#116310"/>
</g>
<defs>
<clipPath id="clip0_2_422">
<rect width="129" height="129" fill="white"/>
</clipPath>
</defs>
</svg>
